<?xml version="1.0" encoding="UTF-8"?>
<svg width="46px" height="46px" viewBox="0 0 46 46" version="1.1" xmlns="http://www.w3.org/2000/svg" xmlns:xlink="http://www.w3.org/1999/xlink">
    <title>编组</title>
    <defs>
        <polygon id="path-1" points="0 0 46 0 46 46 0 46"></polygon>
    </defs>
    <g id="页面-1" stroke="none" stroke-width="1" fill="none" fill-rule="evenodd">
        <g id="1.业务委托-报关委托" transform="translate(-21.000000, -10.000000)">
            <g id="编组" transform="translate(21.000000, 10.000000)">
                <path d="M22.978414,4.67359362 C33.0996266,4.6617192 41.314626,12.8566863 41.3265521,22.9784173 C41.3384265,33.0996073 33.1434413,41.3145884 23.0216879,41.3265146 C12.9004755,41.338389 4.68547605,33.142881 4.67357574,23.021691 L4.67357574,23.0162817 C4.70008097,12.9113194 12.8739702,4.7212206 22.978414,4.67359362 Z" id="Stroke-1" stroke="#00A0E9" stroke-width="0.5"></path>
                <g id="Fill-3-Clipped">
                    <mask id="mask-2" fill="white">
                        <use xlink:href="#path-1"></use>
                    </mask>
                    <g id="path-1"></g>
                    <path d="M23.0161705,0 C35.7186682,0.00919567263 46.0091896,10.3137582 46.0000062,23.0162277 C45.9913391,35.718697 35.6862127,46.0091957 22.9837151,46.0000123 C10.2936588,45.9908043 0.0090875084,35.7062559 -0.000108184624,23.0162277 C0.00584196969,10.3072672 10.3071819,0.00595014111 23.0161705,0" id="Fill-3" fill="#D8A626" fill-rule="nonzero" mask="url(#mask-2)"></path>
                </g>
                <path d="M23.1352819,0.702898497 C35.461297,0.766378175 45.402382,10.8096754 45.340223,23.1356632 C45.2763469,35.461651 35.2330273,45.4027141 22.9070122,45.3405551 C10.5815381,45.2761383 0.639912049,35.233382 0.7026019,22.9073942 L0.7026019,22.880889 C0.807598216,10.5765381 10.8303627,0.667389464 23.1352819,0.702898497" id="Fill-5" fill="#002673" fill-rule="nonzero"></path>
                <path d="M22.978414,5.95007866 C32.400754,5.93229069 40.0537343,13.5560442 40.0716472,22.9783631 C40.0894352,32.4006821 32.4656647,40.0536453 23.0433248,40.0715582 C13.6209851,40.0893462 5.96800476,32.4655927 5.95014735,23.0432737 L5.95014735,23.0162277 C5.94420415,13.6031044 13.56527,5.96528693 22.978414,5.95007866" id="Fill-7" fill="#D8A626" fill-rule="nonzero"></path>
                <path d="M22.978414,6.49105584 C32.0902641,6.48511289 39.4814375,13.8665334 39.4873949,22.9783631 C39.4933379,32.0901928 32.111901,39.48135 23.0000511,39.4873073 C13.8946922,39.4932502 6.50622327,32.1215663 6.49107594,23.0162277 C6.48837282,13.9033161 13.8654823,6.50891346 22.978414,6.49105584" id="Fill-9" fill="#FFFFFF" fill-rule="nonzero"></path>
                <path d="M37.3506841,23.0541463 C37.3538786,24.7569685 37.049339,26.4462677 36.4527008,28.0414464 C36.4083451,28.1285348 36.3704805,28.2188688 36.339107,28.3119073 C33.3883714,35.6868368 25.0175861,39.27369 17.6420994,36.322961 C14.4295569,35.0371895 11.7876884,32.637119 10.2017018,29.5614369 C14.8752776,26.0941274 21.8477765,22.8594143 20.1330503,26.6025941 L18.510281,29.4802986 C17.2661578,32.0118132 18.277684,33.1802046 20.3386012,33.6508067 C27.4192847,35.2843909 35.4411746,28.8961031 37.3506841,23.0541463" id="Fill-11" fill="#002673" fill-rule="nonzero"></path>
                <path d="M22.978414,8.6547507 C29.0151161,8.6547507 36.241849,13.1227658 35.5981505,19.9005174 C35.2086858,24.4172154 30.9245747,28.3929915 26.9920637,29.8697084 C23.4868818,31.194967 21.5828325,30.6486359 22.6268141,28.1982596 L24.7905066,23.9520226 C28.8798853,17.1364064 14.7834288,22.3941674 9.17405609,26.94873 C7.01090454,19.3082079 11.4513424,11.3609831 19.0918816,9.19837723 C20.3565597,8.84028693 21.6639709,8.65745532 22.978414,8.6547507" id="Fill-13" fill="#002673" fill-rule="nonzero"></path>
                <path d="M23.0541974,7.57290686 C24.0392184,7.58426622 24.8354572,8.3783396 24.8500622,9.36335842 C24.8392438,9.68682973 24.7445822,10.0021872 24.5741915,10.2775165 C24.478448,10.4581844 24.3459218,10.6166745 24.1847268,10.7427093 L24.1847268,11.4459078 C24.2225914,11.7163688 24.1847268,11.8732361 24.2225914,11.9111007 C24.2453102,11.9316557 24.2734381,11.9446378 24.3037299,11.9489652 L24.4605975,11.9489652 C24.4605975,11.9111007 24.4984621,11.8732361 24.4984621,11.8353716 L24.5363267,11.7975071 C24.7689237,11.2890405 24.8879268,11.056444 24.963656,10.8617121 C25.0383034,10.7373001 25.1032141,10.6069379 25.1583884,10.4722484 L25.196253,10.4343838 C25.2503453,10.3348542 25.3152561,10.2423565 25.3909852,10.1585136 C25.7323078,9.79663688 26.2207613,9.61110067 26.7162469,9.65545626 C27.1744088,9.65707902 27.6217522,9.79230951 28.003644,10.04492 C28.1172378,10.1206491 28.1983763,10.1963782 28.3119701,10.2775165 C29.0530348,11.0185795 30.1835641,12.4412041 31.2762288,13.7826905 C32.0551581,14.75635 32.7908136,15.6921448 33.3750105,16.3520696 C33.5340419,16.5046096 33.5675791,16.7458607 33.456149,16.9362653 C33.3777152,17.0774459 33.2538437,17.1883349 33.1045489,17.25 C33.0288197,17.2878646 32.9476812,17.2878646 32.8719521,17.325729 C32.3921532,17.4225541 31.8934221,17.3397931 31.4709612,17.0931326 L31.5088258,17.0931326 L29.6750963,15.7300094 C29.7713808,15.8971543 29.7713808,16.1037864 29.6750963,16.2709314 C29.6091038,16.4424036 29.4635954,16.5716838 29.2856318,16.6171214 C29.1866429,16.6528222 29.0822447,16.667427 28.9773056,16.6603952 C28.6971074,16.6420037 28.4277277,16.5468015 28.1983763,16.3845249 C28.0415086,16.2276575 27.771047,15.9571967 27.4951763,15.643462 C27.489767,15.7343368 27.4491977,15.8198025 27.3815823,15.8814675 C27.222551,16.0540216 26.982922,16.1286689 26.7541115,16.0761994 C26.6150943,16.0767404 26.4798635,16.0350894 26.3646468,15.9571967 C26.279181,15.8879586 26.2012881,15.8100658 26.13205,15.7246001 C25.9751823,15.4920037 25.6289914,14.8645343 25.3152561,14.3993415 C25.3152561,14.361477 25.2773915,14.3236124 25.2773915,14.2803387 C25.1205238,14.3993415 25.0015207,14.4750706 24.8879268,14.5562088 L25.4288498,15.4920037 C25.5602942,15.760301 25.4494049,16.0843132 25.181648,16.2157573 C25.1118689,16.2503763 25.0355987,16.2687677 24.9582468,16.2709314 L23.9845852,16.2709314 L23.9845852,19.9275636 C24.1355028,19.8599483 24.2934522,19.8091016 24.4551882,19.7761053 C25.0772499,19.5380996 25.7750408,19.3055033 25.969773,18.9539041 C25.9887054,18.8900753 26.0033103,18.8251647 26.0130469,18.7591721 C26.0130469,18.6834431 26.0130469,18.6455785 25.969773,18.6077141 C25.9264991,18.5698495 25.8940438,18.4887112 25.8561791,18.4129821 C25.8302149,18.3615946 25.7885639,18.3199436 25.737176,18.2939794 C25.6149275,18.2247412 25.4840241,18.171731 25.3477115,18.137112 C24.9441828,18.0905927 24.654789,17.7254704 24.7013083,17.3219426 C24.7061766,17.2808326 24.7142904,17.2408043 24.7256498,17.201317 C24.808952,17.0412042 24.9165957,16.8951552 25.0447945,16.7685795 C25.4115403,16.5186736 25.8448199,16.3829021 26.2889177,16.3791157 C26.7389657,16.4240122 27.1619676,16.6138758 27.4951763,16.9200376 L27.5330409,16.9579021 L27.6141793,17.0390405 C28.0350176,17.3922625 28.2535504,17.9310206 28.1983763,18.4778927 L28.1983763,18.5157573 C27.9225055,20.3873472 26.4457853,21.0472719 25.3531206,21.3988711 C25.8377878,21.781303 26.1477368,22.3427799 26.2131885,22.9567263 C26.2213023,23.6204374 25.9995238,24.2662983 25.5857177,24.7850423 C25.4959244,24.9381232 25.3926081,25.0825494 25.2773915,25.2177799 C25.0447945,25.4503763 24.8067883,25.7208373 24.8067883,25.8777046 C24.8587169,26.1324789 24.9658197,26.3721073 25.1205238,26.5809031 C25.251968,26.7924036 25.3698893,27.0130996 25.4721237,27.2408279 C26.0563207,28.9176858 25.2773915,29.8480715 24.612056,30.3186736 C25.2855052,30.9347836 25.4467004,31.9338664 25.0015207,32.7311853 C24.7586462,33.1693321 24.4113735,33.5414863 23.9899944,33.8130291 L23.9899944,38.0971307 L23.9521298,38.2539981 C23.8693686,38.510936 23.6681451,38.712159 23.4112067,38.79492 C23.2867944,38.8430621 23.15535,38.8701083 23.0217421,38.8760584 C22.888134,38.8733537 22.7561488,38.8457667 22.6322774,38.79492 C22.3645204,38.7148636 22.1486921,38.5147225 22.0480804,38.2539981 L22.0102159,38.0971307 L22.0102159,33.8454846 C21.5899186,33.571778 21.2431869,33.2012464 20.9986895,32.7636406 C20.6470896,32.1037159 20.5713602,31.2869238 21.4260188,30.3511289 C20.4074605,29.6874177 20.0261098,28.3805504 20.5280865,27.2732832 C20.6324846,27.0466369 20.7498649,26.8264816 20.8796864,26.6133584 C21.0343906,26.4045626 21.1409523,26.1643932 21.1934219,25.9101599 C21.1934219,25.7532926 20.9608249,25.4828316 20.7660926,25.2502352 C20.6249117,25.1274459 20.5059087,24.9813969 20.4144926,24.8174977 C20.0158322,24.2906396 19.7978402,23.6496473 19.792431,22.9891816 C19.8530144,22.3752352 20.1613406,21.8121354 20.6470896,21.4313264 C19.5976986,21.0797272 18.1155693,20.4198025 17.8018339,18.5482126 L17.8018339,18.4995296 C17.7504463,17.9521167 17.9711429,17.4144403 18.3914402,17.0606773 L18.4725786,16.979539 L18.5104432,16.9416746 C18.8474383,16.6420037 19.2682765,16.453222 19.7167017,16.4007526 C20.1624224,16.40508 20.5973246,16.5403105 20.9662342,16.7902164 C21.1117425,16.896237 21.2193862,17.0460725 21.2745604,17.2175447 C21.3621899,17.4063264 21.3475849,17.6259407 21.2366958,17.8017404 C21.1068741,18.0029633 20.8910458,18.1327846 20.6524987,18.1533396 C20.5167271,18.1890405 20.3858237,18.2420509 20.2630342,18.3102069 L20.144031,18.4292098 C20.1061664,18.5049389 20.0683018,18.5428033 20.0304372,18.6239416 C19.9925726,18.70508 19.9925726,18.6996707 20.0304372,18.7753999 C20.0201597,18.8424742 20.0331418,18.9117121 20.0683018,18.9701317 C20.2251694,19.321731 20.9229603,19.5543274 21.5504311,19.7923331 C21.7105444,19.8264111 21.8663303,19.8772578 22.015625,19.9437911 L22.015625,16.2817498 L21.0419634,16.2817498 C20.7433739,16.2822906 20.5004994,16.0404985 20.4999584,15.7419096 C20.4994175,15.6591486 20.5188908,15.5769285 20.5551327,15.5028222 L21.1393296,14.5670273 C20.8634589,14.4101599 20.9824619,14.485889 21.1393296,14.5670273 C21.0024761,14.4853481 20.8721136,14.3933914 20.7498649,14.2911571 L20.7174096,14.2911571 C20.7174096,14.3344309 20.6795449,14.3722954 20.6795449,14.4101599 C20.4090834,14.8753528 20.0196188,15.4920037 19.8627511,15.7354186 C19.7951357,15.8219662 19.7167017,15.9003999 19.6301541,15.9680151 C19.5154784,16.0469896 19.3797066,16.0880996 19.2406894,16.0870179 C19.0135017,16.1384054 18.7760365,16.0642991 18.6186279,15.8922859 L18.4996248,15.6542804 C18.2291632,15.9680151 17.9911571,16.2384759 17.8396985,16.3953433 L17.8396985,16.3574789 C17.6103471,16.5543744 17.3193306,16.6652633 17.0174955,16.6712136 C16.9125563,16.6760819 16.8086992,16.660936 16.7091693,16.6279399 C16.5285009,16.5868297 16.3819107,16.4559267 16.3197046,16.2817498 C16.2401888,16.1102775 16.2401888,15.9123001 16.3197046,15.7408279 L14.4859752,17.1039511 L14.5671137,17.0660865 C14.1554712,17.3414158 13.650249,17.4387817 13.1661228,17.3365475 C13.0725431,17.3159925 12.9805862,17.29111 12.890252,17.2608184 C12.7409572,17.1991533 12.6170858,17.0882643 12.538652,16.9470837 C12.4272218,16.7572201 12.4607591,16.515428 12.6197905,16.362888 C13.2039874,15.7029633 13.9829167,14.7671684 14.7239814,13.7935089 C15.8058277,12.4303857 16.9417661,11.0293979 17.6828309,10.2883349 L18.0344309,10.0557385 C18.4000949,9.80366886 18.8339152,9.66789746 19.278554,9.66627469 C19.7745806,9.6170508 20.2651979,9.80312794 20.6038157,10.1693321 C20.6811678,10.2520931 20.7466195,10.3451317 20.7985479,10.4452023 C20.819644,10.4452023 20.8364127,10.4619708 20.8364127,10.4830668 C20.8937505,10.6166745 20.9586612,10.7464958 21.031145,10.8725306 C21.1068741,11.0672625 21.2258772,11.2998589 21.4584742,11.8083255 L21.4963388,11.84619 C21.5287943,11.8748589 21.544481,11.9170508 21.5396127,11.9597836 L21.734345,11.9597836 C21.7549001,11.9392286 21.7808645,11.9257055 21.8100743,11.9219191 C21.8100743,11.8840546 21.8100743,11.0672625 21.8479389,10.6399342 C21.7105444,10.5133584 21.5920823,10.3678504 21.4963388,10.2071966 C21.3778767,9.95079963 21.3113431,9.67276575 21.3016066,9.39040452 C21.2913289,8.91655691 21.4893068,8.46218251 21.8425296,8.1462841 C22.1535604,7.80117591 22.5900854,7.59508467 23.0541974,7.57290686" id="Fill-15" fill="#FFFFFF" fill-rule="nonzero"></path>
                <path d="M21.8479389,15.773229 L21.8479389,12.44115 C21.5098619,12.5514981 21.1463616,12.3675847 21.0360133,12.0295085 C21.0343906,12.0246402 21.0327677,12.0192309 21.031145,12.0138217 C20.6038157,11.1970296 20.5659511,11.0780268 20.3712187,10.688563 C19.8302956,9.8339064 18.6186279,10.1043674 18.0722955,10.6506985 C16.7686707,11.9002281 14.3723814,15.1890334 13.0092551,16.7090241 C13.3814102,16.889692 13.8179352,16.8756279 14.177649,16.6711595 L18.1858893,13.6311783 C18.2291632,13.6311783 18.2291632,13.6311783 18.2291632,13.6690428 C18.1480247,13.8637747 17.2555016,15.2268979 16.7848984,15.9300964 C16.6280308,16.2816957 17.3258216,16.1626928 17.4502339,16.0058254 C18.1480247,15.3837653 20.0953479,12.9279798 19.7437479,13.7069073 L19.0459571,15.3296731 C18.9269541,15.5622695 19.0080926,15.5622695 19.2028248,15.5622695 C19.3975571,15.5622695 19.3542833,15.5244049 19.4354218,15.4054021 C19.6680187,15.1349412 20.2522156,14.0801435 20.4848126,13.6906797 C20.5659511,13.5392215 20.8742773,13.771818 21.0257357,13.847547 C21.2583327,14.0044144 21.4909297,14.1612817 21.7289358,14.3560136 C21.804665,14.3938782 21.804665,14.4317427 21.7668004,14.512881 L21.0257357,15.7570015 L21.8479389,15.773229 Z M21.8479389,30.0265216 C20.9424335,29.5180551 20.5854243,28.3951011 21.031145,27.4571426 C21.1880126,26.9486759 21.734345,26.3752986 21.734345,25.8992874 C21.734345,25.4232762 21.1068741,24.9256279 20.8364127,24.4982996 C20.2954895,23.7193721 19.6680187,22.334612 21.734345,21.3447248 C21.8100743,21.3014511 21.8100743,21.2635865 21.7722096,21.225722 C21.1880126,20.9552611 18.6564925,20.7172554 18.342757,18.461611 C18.2859602,18.0131868 18.4817744,17.5701717 18.8512247,17.3094473 C19.3283189,16.8155857 20.1029209,16.763657 20.6416803,17.1904446 C20.770961,17.2526505 20.8250533,17.4078952 20.763388,17.5371754 C20.7623062,17.5387983 20.7612243,17.540421 20.7606834,17.5420437 C20.7174096,17.6610465 20.2900804,17.6231821 19.9817542,17.8557784 C19.8086588,17.9818132 19.6615276,18.1397625 19.5490156,18.3209712 C19.4435356,18.6011689 19.4592224,18.9127399 19.5922895,19.1810372 C19.9006157,19.8788264 21.0690095,20.1114228 21.8479389,20.3872931 L21.8479389,22.1777446 C21.150148,22.605073 20.8364127,23.1514041 21.8479389,24.4766627 L21.8479389,27.5869638 C21.6153419,27.9964416 21.6153419,28.4978763 21.8479389,28.9073542 L21.8479389,30.0373401 L21.8479389,30.0265216 Z M21.8479389,33.0665028 C21.3448803,32.5585772 20.8742773,31.7033796 21.8479389,30.6107173 L21.8479389,33.0665028 Z M22.2374036,24.8877633 L22.2374036,26.8729468 C22.1238096,27.1055432 21.966942,27.3381396 21.8479389,27.5766863 L21.8479389,24.4604351 C21.9707284,24.558342 22.0767493,24.6746401 22.1616742,24.8066252 C22.177902,24.8066252 22.177902,24.8504399 22.2374036,24.8823542 L22.2374036,24.8877633 Z M22.2374036,10.2828716 C22.0518669,10.1157267 21.917177,9.90043979 21.8479389,9.66081138 L21.8479389,9.11988947 C21.9063586,8.86349247 22.0421302,8.63143696 22.2374036,8.45455551 L22.2374036,10.2774624 L22.2374036,10.2828716 Z M22.2374036,15.7353646 L21.8479389,15.773229 L21.8479389,12.44115 C21.9647783,12.3989581 22.071881,12.3329657 22.1616742,12.2464182 C22.2168485,12.1977352 22.2449764,12.1252516 22.2374036,12.0516863 L22.2374036,15.7137277 L22.2374036,15.7353646 Z M21.8479389,20.4089299 C21.9831697,20.4630221 22.1129912,20.5279327 22.2374036,20.6036617 L22.2374036,21.9667851 C22.1238096,22.0425141 21.966942,22.0803786 21.8479389,22.1615169 L21.8479389,20.4089299 Z M22.2374036,30.183389 C22.1016318,30.1466063 21.9712693,30.0941369 21.8479389,30.0265216 L21.8479389,28.8959948 C21.9566643,29.0452893 22.0881087,29.1767333 22.2374036,29.2854586 L22.2374036,30.183389 Z M22.2374036,33.3748283 C22.1238096,33.2990993 22.0048066,33.1800964 21.8479389,33.0665028 L21.8479389,30.6107173 C21.9707284,30.4857643 22.1005499,30.3683843 22.2374036,30.259659 L22.2374036,31.2760512 C21.8728214,31.5989816 21.8392841,32.1561312 22.1622152,32.5207126 C22.1860157,32.5472178 22.2108982,32.5726411 22.2374036,32.5959007 L22.2374036,33.3748283 Z M23.0650159,8.14072237 C23.3127586,8.1386571 23.556715,8.20627235 23.7682159,8.33555268 L23.7682159,10.3964652 C23.7303514,10.4397389 23.6924868,10.4776035 23.6492129,10.4776035 C23.6524583,11.0120343 23.6924868,11.5448424 23.7682159,12.0733231 L23.7682159,15.7353646 L23.4977543,15.7353646 L23.4977543,20.7983937 C23.5686154,20.7102235 23.662195,20.6426083 23.7682159,20.6036617 L23.7682159,21.9667851 L23.4977543,21.8477822 L23.4977543,25.471959 C23.5729427,25.2707362 23.6632769,25.0760042 23.7682159,24.8877633 L23.7682159,26.8729468 C23.6605723,26.6868696 23.5696971,26.4915969 23.4977543,26.2887511 L23.4977543,29.4801905 C23.5951206,29.4266393 23.6859955,29.3606468 23.7682159,29.2854586 L23.7682159,30.183389 L23.7303514,30.2212536 C23.7514473,30.2212536 23.7682159,30.2385631 23.7682159,30.259659 L23.7682159,31.2760512 C23.6935685,31.2003222 23.6005297,31.14623 23.4977543,31.1191838 L23.4977543,32.871771 C23.5972842,32.7895509 23.6876184,32.6970532 23.7682159,32.5959007 L23.7682159,33.3748283 C23.6951913,33.4613758 23.6021526,33.5279093 23.4977543,33.5695601 L23.4977543,38.129532 C23.3408867,38.4811312 22.6755513,38.4811312 22.5619573,38.129532 L22.5619573,33.5695601 C22.4808189,33.5695601 22.4050897,33.4938311 22.248222,33.3748283 L22.248222,32.5959007 C22.3439653,32.6970532 22.4494453,32.7895509 22.5619573,32.871771 L22.5619573,31.1191838 C22.4461999,31.145689 22.3385562,31.1997812 22.248222,31.2760512 L22.248222,30.259659 C22.248222,30.2385631 22.2649905,30.2212536 22.2860866,30.2212536 L22.248222,30.183389 L22.248222,29.2854586 C22.346129,29.3606468 22.4510682,29.4260983 22.5619573,29.4801905 L22.5619573,26.2887511 C22.4721641,26.4910559 22.3672251,26.6863288 22.248222,26.8729468 L22.248222,24.8823542 C22.3699297,25.0613994 22.4629684,25.2582949 22.5240927,25.4665499 L22.5240927,21.842373 L22.248222,21.9613758 L22.248222,20.6036617 C22.3601931,20.6339535 22.4575593,20.7031915 22.5240927,20.7983937 L22.5240927,15.7353646 L22.248222,15.7353646 L22.248222,12.0733231 C22.3407199,11.5194191 22.3802072,10.9579421 22.3672251,10.3964652 L22.2374036,10.2774624 L22.2374036,8.44914628 C22.4640503,8.2522507 22.7534441,8.14244356 23.0541974,8.14072237 L23.0650159,8.14072237 Z M24.1468622,24.4604351 L24.1468622,27.5869638 C24.0327273,27.3440899 23.9023648,27.1093297 23.7573975,26.8837653 L23.7573975,24.8823542 L23.8331267,24.8012159 C23.9304929,24.6811312 24.0354319,24.5675376 24.1468622,24.4604351 L24.1468622,24.4604351 Z M23.7573975,30.259659 C23.894251,30.3683843 24.0240725,30.4857643 24.1468622,30.6107173 L24.1468622,33.0665028 C24.0262362,33.1806374 23.8964147,33.2839535 23.7573975,33.3748283 L23.7573975,32.5959007 C24.1219797,32.2729704 24.1555169,31.7158209 23.8325857,31.3512394 C23.8087852,31.3247342 23.7839027,31.299311 23.7573975,31.2760512 L23.7573975,30.259659 Z M24.1468622,30.0265216 C24.0267772,30.100087 23.894792,30.1530974 23.7573975,30.183389 L23.7573975,29.2854586 C23.9164289,29.1886336 24.0500369,29.0550258 24.1468622,28.8959948 L24.1468622,30.0265216 Z M23.7573975,20.6036617 C23.8818097,20.5290146 24.0121722,20.464104 24.1468622,20.4089299 L24.1468622,22.1777446 C24.0219089,22.1030974 23.8915464,22.0381868 23.7573975,21.9830127 L23.7573975,20.6036617 Z M23.7573975,12.0733231 C23.7952621,12.192326 23.7952621,12.2301905 23.8331267,12.268055 C23.922379,12.3540616 24.0294818,12.4211359 24.1468622,12.4627869 L24.1468622,15.773229 L23.7573975,15.7353646 L23.7573975,12.0733231 Z M23.7573975,8.33555268 C23.9066922,8.44427799 24.0381366,8.57572201 24.1468622,8.72501647 L24.1468622,10.0070014 C24.0484141,10.1649506 23.9153469,10.2980174 23.7573975,10.3964652 L23.7573975,8.33555268 Z M24.1468622,30.6107173 C25.1583884,31.6925611 24.6877852,32.5585772 24.1468622,33.0665028 L24.1468622,30.6107173 Z M24.1468622,20.4089299 C24.9257914,20.1330597 26.0941854,19.9004633 26.4457853,19.2026741 C26.5588383,18.9273448 26.5588383,18.6184784 26.4457853,18.3426083 C26.3332733,18.1738405 26.20237,18.0180551 26.0563207,17.8774153 C25.7047207,17.6448189 25.3152561,17.6826835 25.2395269,17.5636806 C25.1729932,17.436564 25.2227582,17.2796967 25.350416,17.2137042 C25.350957,17.2131632 25.3520389,17.2126222 25.3531206,17.2120814 C25.907026,16.7847531 26.6929872,16.8355996 27.1868501,17.3310842 C27.5173541,17.6118227 27.7023498,18.0277916 27.6899085,18.461611 C27.3383085,20.7172554 24.8067883,20.9552611 24.2658653,21.225722 C24.2225914,21.2635865 24.1847268,21.3014511 24.2658653,21.3447248 C26.3267823,22.3562489 25.7047207,23.7193721 25.1583884,24.4982996 C24.8879268,24.9256279 24.3037299,25.3913617 24.3037299,25.8992874 C24.3037299,26.4077541 24.8067883,26.9486759 24.963656,27.4571426 C25.4093767,28.3951011 25.0523674,29.5180551 24.1468622,30.0265216 L24.1468622,28.8959948 C24.4021778,28.493008 24.4021778,27.9791322 24.1468622,27.5766863 L24.1468622,24.4604351 C25.196253,23.1351764 24.8879268,22.5888453 24.1468622,22.1615169 L24.1468622,20.4089299 Z M24.1468622,12.4627869 L24.1468622,15.773229 L25.0015207,15.773229 L24.2225914,14.5291086 C24.1847268,14.4479704 24.1847268,14.4101058 24.3037299,14.3722413 C24.527131,14.1904915 24.759728,14.021183 25.0015207,13.8637747 C25.1583884,13.7880456 25.4342591,13.5554492 25.5099883,13.7069073 C25.7425853,14.0963711 26.3646468,15.1511689 26.5593793,15.4216299 C26.6405177,15.5406326 26.6783823,15.5406326 26.7973854,15.5784972 C26.9163885,15.6163617 27.067847,15.5784972 26.9488439,15.3459007 L26.2510531,13.723135 C25.899453,12.9442074 27.8467762,15.399993 28.5499764,16.0220532 C28.6635701,16.1789205 29.3667701,16.2979233 29.2099025,15.9463241 C28.7447086,15.2431256 27.8846408,13.8800024 27.771047,13.6852705 C27.771047,13.6474059 27.771047,13.6474059 27.8089116,13.6474059 L31.817152,16.6873872 C32.1763249,16.8918557 32.6133908,16.9059195 32.9855458,16.7252516 C31.6224196,15.1890334 29.2099025,11.9002281 27.9657793,10.6723354 C27.4248562,10.1314135 26.1699146,9.85554327 25.6289914,10.7101999 C25.4342591,11.0996637 25.3909852,11.2186665 25.0015207,12.0354586 C24.8830585,12.3892215 24.5006258,12.5807079 24.1468622,12.4627869 L24.1468622,12.4627869 Z M24.1468622,8.72501647 C24.2588332,8.92678033 24.3129256,9.15450847 24.3037299,9.38494121 C24.3129256,9.60347367 24.2582923,9.81930151 24.1468622,10.0070014 L24.1468622,8.72501647 Z" id="Fill-17" fill="#D8A626" fill-rule="nonzero"></path>
                <path d="M2.54774789,18.851183 L2.54774789,19.5111078 L2.49365558,19.5111078 L2.49365558,19.4732432 L2.4125171,19.4732432 L2.3746525,19.4353786 L2.26105864,19.4353786 L2.21778478,19.4732432 L2.16369248,19.4732432 L2.16369248,19.5111078 L2.12582785,19.5489722 L2.06632632,19.5489722 L2.06632632,19.3975141 L2.10419093,19.3163758 L2.16369248,19.2406468 L2.16369248,19.1595085 L2.20155709,19.0837794 L2.24483094,19.0459148 L2.28269557,18.9647765 L2.33678787,18.9323212 L2.33678787,18.8944568 L2.3746525,18.8944568 L2.4125171,18.8565922 L2.53152019,18.8565922 L2.54774789,18.851183 Z M2.39088019,17.6827916 L2.4287448,17.6016533 L2.47201866,17.5637888 L2.50988326,17.5259243 L2.54774789,17.4880597 L2.54774789,18.185849 L2.4287448,18.1479846 L2.33678787,18.1479846 L2.29892326,18.11012 L2.26105864,18.0722554 L2.26105864,17.9911172 L2.33678787,17.7963852 L2.3746525,17.6827916 L2.39088019,17.6827916 Z M2.7046156,18.8890475 L2.7046156,19.4299694 L2.65052328,19.4299694 L2.60724943,19.4732432 L2.53152019,19.5111078 L2.53152019,18.851183 L2.65052328,18.851183 L2.7046156,18.8890475 Z M2.7046156,18.6564511 L2.7046156,18.8133184 L2.62347712,18.7321801 L2.56938482,18.7321801 L2.56938482,18.6943157 L2.56938482,18.6564511 L2.7046156,18.6564511 Z M2.53152019,17.5259243 L2.56938482,17.5259243 L2.56938482,17.6016533 L2.60724943,17.6016533 L2.60724943,17.644927 L2.7046156,17.644927 L2.7046156,18.2291227 L2.54774789,18.185849 L2.54774789,17.5259243 L2.53152019,17.5259243 Z M2.74248021,19.8572978 L2.74248021,20.0520296 L2.7046156,20.0520296 L2.7046156,19.9330268 L2.7046156,19.8627069 L2.74248021,19.8572978 Z M2.74248021,18.9593674 L2.74248021,19.4299694 L2.7046156,19.4299694 L2.7046156,18.8890475 L2.74248021,18.9647765 L2.74248021,18.9593674 Z M2.74248021,18.726771 L2.74248021,18.8457737 L2.7046156,18.8133184 L2.7046156,18.6943157 L2.7046156,18.7321801 L2.74248021,18.726771 Z M2.7046156,17.644927 L2.74248021,17.6827916 L2.74248021,18.2669873 L2.7046156,18.2291227 L2.7046156,17.644927 Z M2.7046156,19.3975141 L2.7046156,18.9647765 L2.74248021,19.0080504 L2.74248021,19.3163758 L2.7046156,19.3542404 L2.7046156,19.3975141 Z M3.018351,19.4353786 L3.018351,19.9763006 L2.97507716,19.9330268 L2.88312023,19.9330268 L2.8452556,19.9763006 L2.80198176,19.9763006 L2.76411714,20.0141651 L2.7046156,20.0574389 L2.7046156,19.8627069 L2.74248021,19.8248425 L2.78034483,19.7058396 L2.82361867,19.6679751 L2.8614833,19.5922459 L2.8614833,19.5489722 L2.89934792,19.5111078 L2.95884946,19.4732432 L2.99671408,19.4353786 L3.018351,19.4353786 Z M3.018351,18.9269121 L2.97507716,18.8890475 L2.8614833,18.8133184 C2.8192913,18.7700447 2.76411714,18.7413758 2.7046156,18.7321801 L2.7046156,18.851183 L2.8614833,18.9647765 L2.97507716,19.0837794 L3.018351,19.0837794 L3.018351,18.9323212 L3.018351,18.9269121 Z M3.018351,18.7700447 L3.018351,18.7700447 L2.97507716,18.8133184 L2.93721253,18.851183 L2.92098484,18.851183 L2.92098484,18.8133184 L3.03998792,18.3805809 L3.03998792,18.7700447 L3.018351,18.7700447 Z M3.018351,16.4765358 C3.018351,16.433262 3.018351,16.433262 2.97507716,16.3953974 L2.97507716,16.1249364 C2.94586731,16.0924811 2.9318033,16.0492074 2.93721253,16.0059337 L2.93721253,15.9680691 C2.93721253,15.9302046 2.89934792,15.9302046 2.89934792,15.8923401 L2.89934792,15.7733373 L2.89934792,15.7354727 L2.95884946,15.6867898 L2.95884946,15.6435159 L3.03998792,15.6056515 L3.03998792,16.4657173 L3.018351,16.4765358 Z M3.018351,17.2554633 L2.8614833,17.2121895 L2.80198176,17.2121895 L2.76411714,17.1743251 L2.76411714,17.1364605 L2.76411714,17.0985959 L2.80198176,17.0607315 L2.80198176,17.0174577 L2.8452556,16.9795931 L2.8452556,16.9417285 L2.88312023,16.9417285 L2.88312023,16.9038641 L2.92098484,16.8659995 L2.95884946,16.7686336 L2.99671408,16.730769 L2.99671408,16.6929046 L3.03998792,16.6929046 L3.03998792,17.2554633 L3.018351,17.2554633 Z M2.7046156,17.6827916 L3.018351,17.7585206 L3.018351,18.3427164 L2.7046156,18.2669873 L2.7046156,17.6827916 Z M3.03998792,19.9654821 L3.24553871,19.9654821 L3.28340333,19.9222084 L3.32126796,19.8843438 L3.35913257,19.8464794 L3.35913257,19.8086148 L3.39699719,19.7274764 L3.39699719,19.5760184 L3.35913257,19.49488 L3.35913257,19.4732432 L3.32126796,19.4353786 L3.28340333,19.3975141 L3.24553871,19.3542404 L3.11571717,19.3542404 L3.07785255,19.3975141 L3.03998792,19.3975141 L3.03998792,19.9817098 L3.03998792,19.9654821 Z M3.54304642,19.2244191 L3.54304642,19.5327446 L3.46731719,19.4732432 L3.38617873,19.4353786 L3.31044949,19.3163758 L3.24553871,19.2406468 L3.12653562,19.1595085 L3.05080639,19.0837794 L3.05080639,18.9323212 L3.20226487,19.0513241 L3.44027103,19.1649177 L3.55386489,19.2460559 L3.54304642,19.2244191 Z M3.03998792,17.7422931 L3.11571717,17.7422931 L3.11571717,17.7044285 L3.07785255,17.7044285 L3.07785255,17.666564 L3.03998792,17.6286994 L3.03998792,17.5475611 L3.03998792,17.5259243 L3.07785255,17.4880597 L3.11571717,17.4501952 L3.15358178,17.4501952 L3.1914464,17.4069215 L3.24553871,17.3690569 L3.31044949,17.3095554 L3.1914464,17.3095554 L3.03998792,17.271691 L3.03998792,16.6712677 L3.03998792,16.6279938 L3.03998792,15.6164699 L3.11571717,15.5407409 L3.1914464,15.4596026 L3.24553871,15.421738 L3.28340333,15.421738 L3.32126796,15.3838735 L3.44027103,15.3838735 L3.44027103,15.421738 L3.39699719,15.4596026 L3.39699719,15.5407409 C3.35913257,15.6164699 3.35913257,15.6976083 3.32126796,15.7733373 L3.32126796,15.8923401 C3.29151718,16.0199977 3.27907594,16.1509007 3.28340333,16.2818038 C3.25202978,16.3548283 3.23904763,16.4348848 3.24553871,16.5144004 L3.24553871,16.5901294 L3.20226487,16.6279938 L3.24553871,16.6712677 L3.24553871,16.7091322 L3.28340333,16.7091322 L3.55386489,16.7848612 L3.55386489,17.3690569 L3.50518181,17.3690569 L3.38617873,17.3095554 L3.38617873,17.34742 L3.38617873,17.3852846 L3.38617873,17.4285584 L3.27258487,17.7747484 L3.54304642,17.8558867 L3.54304642,18.4400823 L3.15358178,18.3913994 L3.03998792,18.7808631 L3.03998792,18.3535348 L3.03998792,17.7585206 L3.03998792,17.7422931 Z M3.54304642,19.5327446 L3.54304642,19.5327446 L3.6241849,19.6138828 L3.66204951,19.6517474 L3.69991414,19.689612 L3.73777874,19.7707502 L3.73777874,19.8086148 L3.78646183,19.8086148 L3.78646183,20.3116721 L3.78646183,20.3549459 L3.82973569,20.3549459 L3.82973569,20.3116721 L3.8676003,20.3116721 L3.8676003,20.2738075 L3.90546492,20.1980785 L3.94332953,20.1602141 L3.98119415,20.1169403 L3.98119415,20.0790757 L4.02446801,20.0412112 L4.05151415,20.0141651 L4.16510801,20.0141651 L4.20838187,20.0520296 L4.24624648,20.0520296 L4.2841111,20.0898942 L4.35984033,20.1277588 L4.40311419,20.1710325 L4.47884342,20.2088969 L4.47884342,20.2467615 L4.55457265,20.2467615 L4.55457265,20.2846261 L4.59784651,20.2846261 L4.59784651,20.3224906 L4.71144037,20.3224906 L4.79257883,20.2846261 L4.86830806,20.2521707 L4.90617269,20.1764416 L4.94403731,20.0953033 L4.98731115,19.9817098 L4.98731115,19.8627069 L4.94403731,19.7058396 L4.90617269,19.6679751 L4.86830806,19.6301105 L4.83044346,19.5922459 L4.79257883,19.5489722 L4.08937878,19.5489722 L4.05151415,19.5111078 L4.01364955,19.5111078 L3.97037569,19.4732432 L3.89464646,19.4732432 L3.85678183,19.4353786 L3.81891722,19.3975141 L3.73777874,19.3542404 L3.66204951,19.3163758 L3.58091105,19.2785112 L3.54304642,19.2406468 L3.54304642,19.5327446 Z M3.54304642,16.7686336 L3.58091105,16.8064981 L3.77564337,16.8497719 L3.93251108,16.3413053 L3.89464646,16.3034407 L3.89464646,16.2818038 L3.85678183,16.2277116 L3.81891722,16.2277116 L3.81891722,16.1898472 L3.78646183,16.1249364 L3.78646183,16.087072 L3.74859721,16.0437983 L3.74859721,15.9680691 L3.78646183,15.9302046 L3.78646183,15.8923401 L3.82973569,15.8490663 L3.8676003,15.8112017 L3.90546492,15.7733373 L3.97037569,15.6867898 L4.01364955,15.6435159 L4.08937878,15.5677869 L4.1272434,15.5677869 L4.16510801,15.5299225 L4.16510801,15.5677869 L4.20838187,15.5677869 L4.20838187,15.6056515 L4.20838187,15.6435159 L4.1272434,15.9572507 L4.1272434,15.9951152 L4.1272434,16.0329798 L4.16510801,16.0329798 L4.20838187,16.0762536 L4.24624648,16.0762536 L4.2841111,16.114118 L5.80410506,16.5035819 L5.84196969,16.5414464 L5.87983429,16.579311 L5.87983429,16.6171754 L5.91769892,16.6604491 L5.91769892,16.7686336 L5.87983429,16.8876364 L5.87983429,16.9633654 L5.84196969,17.00123 L5.84196969,17.0445037 L5.80410506,17.0823683 L5.76624045,17.1202328 L5.68510197,17.1202328 L3.93251108,16.6117663 L3.85678183,16.8876364 L3.97037569,16.8876364 L4.05151415,16.925501 L4.16510801,16.9633654 L4.24624648,17.00123 L4.35984033,17.0445037 L4.44097881,17.0823683 L4.51670805,17.1202328 L4.59784651,17.1580974 L4.67357574,17.195962 L4.71144037,17.2771001 L4.79257883,17.3149647 L4.83044346,17.3528293 L4.90617269,17.3906938 L4.94403731,17.4339675 L4.98731115,17.5096967 L5.02517578,17.5475611 L5.10090501,17.6286994 L5.13876963,17.7044285 L5.18204347,17.7801575 L5.2199081,17.8612958 L5.25777272,17.9370249 L5.29563733,17.9748895 L5.29563733,18.0560278 L5.33350195,18.1317568 L5.33350195,18.1696214 L5.3767758,18.2507596 L5.3767758,18.4454915 L5.33350195,18.4833561 L5.33350195,18.5590852 L5.29563733,18.4454915 L5.25777272,18.407627 L5.2199081,18.3264888 L5.2199081,18.2886242 L5.18204347,18.2128952 L5.13876963,18.1696214 L5.10090501,18.1317568 L5.06304039,18.0938922 L5.02517578,18.0181632 L4.98731115,17.9748895 L4.94403731,17.9370249 L4.90617269,17.8991604 L4.86830806,17.8775236 L4.79257883,17.8504774 L4.74930499,17.8504774 L4.67357574,17.8072037 L4.63571113,17.7693391 L4.55457265,17.7314746 L4.47884342,17.69361 L4.40311419,17.6557456 L4.32738496,17.6016533 L4.2137911,17.5637888 L4.1272434,17.5637888 L4.01364955,17.5259243 L3.89464646,17.4880597 L3.81891722,17.4501952 L3.81891722,17.4880597 L3.81891722,17.5637888 L3.85678183,17.6016533 C3.85678183,17.7206562 3.89464646,17.7963852 3.89464646,17.915388 L3.89464646,17.9911172 L4.94403731,18.2669873 L4.98731115,18.3048518 L5.06304039,18.3048518 L5.10090501,18.3427164 L5.13876963,18.3427164 L5.18204347,18.3805809 L5.2199081,18.4238547 L5.2199081,18.4617191 L5.25777272,18.5374483 L5.25777272,18.9647765 L5.2199081,19.0080504 L5.2199081,19.0837794 L5.18204347,19.0837794 L5.18204347,19.1216439 L5.13876963,19.1216439 L5.13876963,19.0837794 L5.02517578,19.0837794 L5.02517578,19.1216439 L4.98731115,19.1216439 L4.94403731,19.1595085 L4.90617269,19.2027822 L4.86830806,19.2406468 L4.83044346,19.3163758 L4.79257883,19.3542404 L4.74930499,19.3542404 L4.74930499,19.2785112 L4.79257883,19.1595085 L4.79257883,19.0837794 L4.83044346,19.0080504 L4.83044346,18.8890475 L4.79257883,18.851183 L4.79257883,18.8133184 L4.74930499,18.8133184 L4.01364955,18.6185865 L4.05151415,18.6943157 L4.05151415,18.8133184 L4.08937878,18.851183 L4.08937878,18.9647765 L4.1272434,18.9647765 L4.1272434,19.0080504 L4.1272434,19.0837794 L4.08937878,19.1216439 L4.05151415,19.1595085 L4.01364955,19.1595085 L3.97037569,19.2027822 L3.81891722,19.2027822 L3.73777874,19.2406468 L3.6241849,19.2406468 L3.58091105,19.2027822 L3.58091105,19.1595085 L3.54304642,19.1216439 L3.54304642,19.0080504 L3.58091105,18.9647765 L3.58091105,18.7700447 L3.6241849,18.6943157 L3.6241849,18.4995837 L3.54304642,18.4617191 L3.54304642,17.8775236 L3.66204951,17.915388 L3.69991414,17.8504774 L3.69991414,17.6124717 L3.73777874,17.5367427 L3.73777874,17.4988782 L3.78646183,17.4501952 L3.73777874,17.4501952 L3.6241849,17.4069215 L3.54304642,17.3690569 L3.54304642,16.7686336 Z" id="Fill-19" fill="#FFFFFF" fill-rule="nonzero"></path>
                <path d="M7.82726572,11.1699835 L7.82726572,11.2511218 L7.78940109,11.2511218 L7.78940109,11.2132573 L7.82726572,11.2132573 L7.82726572,11.1699835 Z M7.82726572,10.0448659 L7.82726572,10.4343297 L7.78940109,10.4721943 L7.71367186,10.5479233 L7.51893954,10.5479233 L7.43780107,10.5100588 L7.36207182,10.4721943 L7.32420722,10.4721943 L7.32420722,10.4397389 L7.1673395,10.4397389 L7.12947489,10.4776035 L7.03210873,10.4776035 L7.03210873,10.515468 L6.99424411,10.515468 L6.99424411,10.4776035 L6.99424411,10.4397389 L7.03210873,10.4397389 L7.06997334,10.3964652 L7.06997334,10.3586007 L7.10783797,10.3207361 L7.18897643,10.2828716 L7.22684106,10.2450071 L7.26470566,10.2017333 L7.34584414,10.1638688 L7.38370875,10.1260042 L7.42157338,10.0881397 L7.459438,10.0881397 L7.49730261,10.0502752 L7.54057647,10.0502752 L7.57303184,10.0070014 L7.80562879,10.0070014 L7.84349341,10.0502752 L7.82726572,10.0448659 Z M7.82726572,8.99006821 L7.82726572,9.22266463 L7.78940109,9.14693557 L7.78940109,9.07120649 L7.75153648,8.99006821 L7.75153648,8.95220367 L7.75153648,8.87647459 L7.75153648,8.83320085 L7.78940109,8.87647459 L7.82726572,8.91433914 L7.82726572,8.99006821 Z M6.6967364,9.69326669 L6.77787486,9.61212841 L6.85360409,9.53639933 L6.89146872,9.4985348 L6.97260718,9.41739652 L7.04833643,9.37953199 L7.08620104,9.34166746 L7.1673395,9.30380291 L7.24306875,9.26593838 L7.32420722,9.22266463 L7.51893954,9.22266463 L7.55680416,9.26593838 L7.59466877,9.30380291 L7.63253339,9.34166746 L7.63253339,9.57426388 L7.59466877,9.61212841 L7.55680416,9.65540216 L7.51893954,9.73654046 L7.47566568,9.77440499 L7.43780107,9.77440499 L7.36207182,9.81226952 L7.24306875,9.81226952 L7.20520413,9.77440499 L7.1673395,9.73654046 L7.08620104,9.69867591 L7.03210873,9.66081138 L6.87524102,9.66081138 L6.83737641,9.69867591 L6.6805087,9.69867591 L6.6967364,9.69326669 Z M7.90840418,11.0563899 L7.90840418,11.2132573 L7.86513034,11.2132573 L7.86513034,11.2511218 L7.82726572,11.2511218 L7.82726572,11.1699835 L7.86513034,11.132119 L7.90840418,11.0563899 Z M7.90840418,10.120595 L7.90840418,10.3153269 L7.82726572,10.4343297 L7.82726572,10.0448659 L7.86513034,10.0827305 L7.90840418,10.120595 Z M7.90840418,8.99006821 L7.90840418,9.10907102 L7.90840418,9.14693557 L7.90840418,9.61212841 L7.86513034,9.4985348 L7.86513034,9.37953199 L7.82726572,9.30380291 L7.82726572,8.99006821 L7.86513034,9.02793274 L7.90840418,8.99006821 Z M7.90840418,10.2774624 L7.90840418,10.120595 L7.90840418,10.2774624 Z M8.95779503,10.9427963 L8.95779503,11.5648565 L8.91993041,11.5648565 L8.8820658,11.6459948 L8.80092732,11.6459948 L8.72519809,11.6838594 L8.68733348,11.6459948 L8.606195,11.6459948 L8.56833039,11.6081303 L8.53046577,11.5648565 L8.49260114,11.4891275 L8.4493273,11.3593062 L8.41146268,11.3593062 L8.37359807,11.2835771 L8.33573345,11.2457126 L8.29786882,11.2024388 L8.25459498,11.1645743 L8.21673036,11.1267098 L8.11395497,11.1267098 L8.07068112,11.1645743 L7.99495188,11.1645743 L7.95708727,11.2024388 L7.91922264,11.2457126 L7.91922264,11.0888453 L7.95708727,11.007707 L7.99495188,10.9698424 L8.0328165,10.8941134 L8.07068112,10.8129751 L8.11395497,10.7101999 L8.11395497,10.5911971 L8.11395497,10.4776035 L8.07068112,10.4397389 L8.07068112,10.2450071 L8.0328165,10.1638688 L8.0328165,10.0881397 L7.99495188,9.93127235 L7.95708727,9.85554327 L7.91922264,9.66081138 L7.91922264,9.19561853 L7.95708727,9.23348306 L7.95708727,9.35248589 L8.0328165,9.47148872 L8.07068112,9.62294685 L8.11395497,9.73654046 L8.15181959,9.85554327 L8.1896842,9.96913688 L8.22754882,10.0502752 L8.26541345,10.1260042 L8.30868729,10.2450071 L8.34655191,10.2828716 L8.38441652,10.3586007 L8.42228114,10.4397389 L8.42228114,10.4776035 L8.46014577,10.515468 L8.46014577,10.5533325 L8.50341961,10.5911971 L8.54128423,10.6344708 L8.57914886,10.6723354 L8.61701346,10.7101999 L8.69815193,10.785929 L8.73601655,10.8292027 L8.81174579,10.8670673 L8.93074887,10.9049318 L8.9686135,10.9427963 L8.95779503,10.9427963 Z M8.95779503,7.9460889 L8.95779503,8.95761289 L8.53046577,8.53028457 L7.90840418,9.11448025 L7.90840418,8.99547742 L8.95779503,7.9460889 Z M8.95779503,11.5648565 L8.95779503,10.9427963 L8.99565964,10.9427963 L9.03352427,10.9806609 L9.07679812,10.9806609 L10.0504597,10.0502752 L8.9686135,8.96843132 L8.9686135,7.9460889 L9.16334582,7.75135701 L9.19580121,7.75135701 L9.19580121,7.67021873 L9.19580121,7.36189322 L9.19580121,7.32402869 L9.23366582,7.28075494 L9.27693968,7.28075494 L9.31480429,7.24289041 L9.35266891,7.24289041 L9.42839814,7.20502588 L9.471672,7.20502588 L9.54740123,7.16716133 L9.62313046,7.16716133 C9.64476739,7.14606538 9.67343632,7.13254233 9.70426894,7.1292968 L9.86113664,7.1292968 L9.86113664,7.20502588 L9.81786278,7.20502588 L9.81786278,7.24289041 L9.77999818,7.24289041 L9.77999818,7.28075494 L9.74213355,7.32402869 L9.12007196,7.90822437 L9.08220736,7.9460889 L9.0389335,7.98395343 L9.0389335,8.02181796 L9.0389335,8.05968251 L9.0389335,8.11377469 L9.08220736,8.11377469 L10.5210629,9.59049153 L10.8726629,9.23889228 L10.9105275,9.20102775 L10.9105275,8.93056679 L10.9483921,8.89270226 L10.9483921,8.84942851 L10.9483921,8.81156396 L10.9862567,8.77369943 L11.0295306,8.7358349 L11.1052598,8.7358349 L11.1431244,8.69797037 L11.2999921,8.69797037 L11.3594937,8.65469662 L11.4784968,8.65469662 L11.5163614,8.61683209 L11.554226,8.61683209 L11.554226,8.65469662 L11.554226,8.69797037 L11.5163614,8.69797037 L11.5163614,8.7358349 L11.4784968,8.7358349 L11.4784968,8.77369943 L11.4406322,8.81156396 L9.14170889,11.0726176 L9.14170889,11.1104821 L9.17957352,11.1862112 L9.17957352,11.2294849 L9.14170889,11.305214 L9.14170889,11.3593062 L9.10384427,11.4404445 L9.06597966,11.478309 L8.98484119,11.5540381 L8.95779503,11.5648565 Z" id="Fill-21" fill="#FFFFFF" fill-rule="nonzero"></path>
                <path d="M16.4331903,5.20372295 L16.3574611,5.24158748 L16.4331903,5.51204846 L16.3953257,5.5553222 L16.3953257,5.59318674 L16.3574611,5.59318674 L16.3195963,5.63105127 L16.2276394,5.63105127 L16.1897748,5.6689158 L16.1140456,5.70678033 L16.0329072,5.7500541 L15.8814486,5.7500541 L15.8814486,5.70678033 L15.8489933,5.70678033 L15.8489933,5.6689158 L15.3459347,4.04615005 L15.3459347,4.01369473 L15.3837995,3.97042098 L15.4216641,3.93255644 L15.5028025,3.93255644 L15.5785317,3.89469191 L15.8489933,3.89469191 L15.9301318,3.85682737 L16.005861,3.85682737 L16.4331903,3.69996001 L16.4331903,3.81896284 L16.1627287,3.89469191 L16.1248641,3.93255644 L16.0869995,3.93255644 L16.0437256,3.97042098 L16.005861,3.97042098 L16.005861,4.01369473 L15.9679964,4.05155927 L15.9679964,4.0894238 L16.1248641,4.51675211 L16.4331903,4.40315852 L16.4331903,4.51675211 L16.1248641,4.59789041 L16.3195963,5.18208607 L16.4331903,5.13881232 L16.4331903,5.20372295 Z M16.4764642,3.04003527 L16.4764642,3.04003527 L16.4764642,2.95889699 L16.5143287,2.95889699 L16.5521933,2.92103246 L16.6279225,2.92103246 L16.709061,2.88316791 L16.7685626,2.88316791 L16.8875657,2.84530338 L16.9632949,2.80202963 L17.1201625,2.80202963 L17.1580273,2.84530338 L17.1580273,2.88316791 L17.1201625,2.92103246 L17.1201625,2.95889699 L17.082298,2.99676152 L17.2391658,3.46736359 L17.7422242,3.31049624 L17.7422242,3.38622531 L17.3094857,3.54309267 L17.4663535,4.12728833 L17.7746795,4.01369473 L17.7746795,4.0894238 L17.5042181,4.20842663 L17.6610857,4.74934854 L17.7746795,4.74934854 L17.7746795,4.83048683 L17.6989503,4.83048683 L17.7746795,5.10094779 L17.7746795,5.84201083 L17.5258549,5.84201083 L17.4501258,5.80414628 L17.4068519,5.80414628 L17.3689873,5.76628175 L17.3094857,5.723008 L17.3094857,5.68514347 L17.3094857,5.60941439 L17.1147534,5.02521873 L16.449418,5.21995062 L16.449418,5.13881232 L17.0768888,4.94408043 L16.920021,4.35988475 L16.449418,4.51675211 L16.449418,4.40315852 L16.8821564,4.28415569 L16.7252887,3.74323378 L16.449418,3.82437206 L16.449418,3.69996001 L16.6874241,3.66209548 L16.4926917,3.04003527 L16.4764642,3.04003527 Z M17.758452,5.10094779 L17.758452,5.84201083 L17.8395904,5.80414628 L17.9153196,5.80414628 L18.0343227,5.76628175 L18.1479165,5.76628175 L18.2669197,5.723008 L18.4237874,5.64727893 L18.8889812,5.52827611 L19.0079843,5.49041157 L19.0837135,5.45254704 L19.2027166,5.40927328 L19.2784459,5.37140875 L19.397449,5.328135 L19.4731782,5.29567968 L19.5489073,5.25781515 L19.5921812,5.21995062 L19.6679106,5.18208607 L19.7436398,5.13881232 L19.7869136,5.10094779 L19.8247782,5.06308326 L19.8626428,5.02521873 L19.9005074,4.98735419 L19.938372,4.94408043 L19.9816459,4.9062159 L19.9816459,4.86835137 L20.0141014,4.86835137 L20.0141014,4.83048683 L19.9762366,4.7926223 L19.9762366,4.74934854 L19.9329629,4.74934854 L19.8950983,4.71148401 L19.8193689,4.71148401 L19.7815044,4.67361947 L19.7003659,4.63575494 L19.6625013,4.59789041 L19.6246367,4.55461665 L19.5867721,4.51675211 L19.5867721,4.47888758 L19.5434982,4.40315852 L19.5434982,4.35988475 L19.5434982,4.32742944 L19.5434982,4.28415569 L19.4731782,4.28415569 L19.4731782,4.32742944 L19.4731782,4.40856773 L19.4731782,4.4842968 L19.4353136,4.56002588 L19.4353136,4.64116416 L19.397449,4.71689322 L19.3541751,4.75475775 L19.3541751,4.83589605 L19.3163105,4.86835137 L19.2784459,4.9062159 L19.2027166,4.94408043 L19.1594428,4.98735419 L19.1215782,5.02521873 L19.0458489,5.06308326 L18.9647104,5.10094779 L18.8889812,5.13881232 L18.813252,5.13881232 L18.7321136,5.18208607 L18.3913319,5.29567968 L18.2777381,5.33354421 L18.1587351,5.37681796 L17.9640026,5.37681796 L17.8882735,5.33354421 L17.8504089,5.33354421 L17.8504089,5.29567968 L17.758452,5.10094779 Z M17.758452,3.31049624 L17.877455,3.2726317 L17.9153196,3.2726317 L17.9153196,3.24558561 L17.9531842,3.20231185 L17.9531842,3.15362888 L17.9531842,3.07789981 L17.9910488,3.07789981 L17.9910488,3.04003527 L18.0343227,2.99676152 L18.0721873,2.99676152 L18.1479165,2.95889699 L18.4237874,2.95889699 L18.461652,2.99676152 L18.6185196,2.99676152 L18.694249,3.04003527 L18.7321136,3.04003527 L18.7699782,3.07789981 L18.8511166,3.07789981 L18.8511166,3.11576435 L18.813252,3.15362888 L18.813252,3.19149342 L18.7699782,3.19149342 L18.7321136,3.24558561 L18.7321136,3.28345015 L18.7321136,3.32131468 L19.0837135,4.45184148 L19.0837135,4.48970601 L19.0458489,4.52757056 L19.0079843,4.56543509 L18.9647104,4.60870884 L18.9322551,4.63575494 L18.8943905,4.63575494 L18.8186612,4.67361947 L18.7375227,4.71148401 L18.6617935,4.71148401 L18.6239289,4.74934854 L18.580655,4.74934854 L18.5427904,4.71148401 L18.4995166,4.71148401 L18.4995166,4.67361947 L18.461652,4.59789041 L17.758452,4.83048683 L17.758452,4.74934854 L18.4237874,4.51675211 L18.2669197,3.93255644 L17.758452,4.0894238 L17.758452,4.01369473 L18.229055,3.85682737 L18.0721873,3.31590546 L17.758452,3.39163453 L17.758452,3.31049624 Z" id="Fill-23" fill="#FFFFFF" fill-rule="nonzero"></path>
                <path d="M30.3783505,3.38606304 L30.4162152,3.42933678 L30.4973537,3.46720132 L30.5352183,3.50506585 L30.5730829,3.54293038 L30.6109475,3.58079491 L30.6488121,3.62406868 L30.692086,3.69979774 L30.692086,3.73766227 L30.7299506,3.7755268 L30.7678151,3.81880057 L30.7678151,3.89452963 L30.6109475,3.89452963 L30.5730829,3.8566651 L30.4973537,3.8566651 L30.4540798,3.81880057 L30.2593474,3.81880057 C30.1836182,3.81880057 30.107889,3.8566651 30.0267505,3.8566651 L29.7508797,3.8566651 C29.6848871,3.86531985 29.6199764,3.87776105 29.5561474,3.89452963 L29.3235504,3.89452963 L29.2099566,3.93239416 L29.2478212,3.93239416 L29.2478212,4.01353246 L29.2478212,4.05139699 L29.2099566,4.05139699 L29.2099566,4.08926152 L29.1342274,4.08926152 L29.1342274,4.12712606 L29.0530889,4.35972248 L30.0646151,4.63559267 L30.107889,4.59772812 L30.1457536,4.59772812 L30.2214828,4.55445437 L30.2593474,4.51658984 L30.3404859,4.47872531 L30.3783505,4.47872531 L30.4162152,4.44086078 L30.5352183,4.44086078 L30.5730829,4.47872531 L30.6488121,4.51658984 L30.692086,4.55445437 L30.7299506,4.59772812 L30.7678151,4.63559267 L30.8435445,4.71132173 L30.8868182,4.79246001 L30.9246828,4.83032456 L30.9246828,4.86818909 L30.9625476,4.86818909 L30.9625476,4.90605362 L30.9625476,4.94391816 L30.7678151,4.94391816 L29.0530889,4.44086078 L28.6690334,5.72284572 L28.6690334,5.80398401 L28.6311688,5.84184854 L28.5933042,5.87971307 L28.5554396,5.87971307 L28.4743011,5.91757762 L28.4364366,5.91757762 L28.3607074,5.96085137 L28.0091073,5.96085137 L27.9279688,5.91757762 L27.8522396,5.91757762 L27.814375,5.87971307 L27.7332365,5.87971307 L27.6953718,5.84184854 L27.6575072,5.84184854 L27.6575072,5.80398401 L27.6196426,5.76611947 L27.6196426,5.72284572 L27.5871873,5.68498119 L27.5871873,5.60925211 L27.5439134,5.57138758 L27.4681841,5.52811383 L27.4303195,5.45238475 L27.3383626,5.409111 L27.2626334,5.37124647 L27.1869042,5.32797272 L27.1436303,5.29010819 L27.1057657,5.29010819 L27.1057657,5.25765288 L27.300498,5.25765288 L27.3816365,5.29551741 L27.4573657,5.29551741 L27.533095,5.33338194 L27.6142335,5.33338194 L27.6520981,5.37665569 L28.0415627,5.37665569 L28.0415627,5.33338194 L28.3552981,4.2515381 L26.364701,3.74307149 L26.364701,3.69979774 L26.3268364,3.69979774 L26.3268364,3.66193321 L26.2889718,3.66193321 L26.3268364,3.62406868 L26.4079749,3.62406868 L28.3931627,4.16499059 L28.4688919,3.81880057 L28.4688919,3.73766227 L28.5067566,3.69979774 L28.5878951,3.69979774 L28.6636243,3.73766227 L28.7826273,3.73766227 L28.8962211,3.7755268 L29.0530889,3.8566651 L29.0909535,3.81880057 L29.172092,3.78634525 L29.2099566,3.73766227 L29.2478212,3.73766227 L29.3289597,3.69979774 L29.3668243,3.66193321 L29.4046889,3.62406868 L29.4804182,3.62406868 L29.5236919,3.58079491 L29.5615567,3.54293038 L29.5994213,3.50506585 L29.6372859,3.50506585 L29.6751505,3.46720132 L29.6751505,3.42933678 L29.7184244,3.42933678 L27.3816365,2.76400283 L27.3383626,2.76400283 L27.3383626,2.70450141 L27.300498,2.70450141 L27.300498,2.65040922 L27.3816365,2.65040922 L29.7508797,3.31033396 L29.7887444,3.27246942 L29.826609,3.27246942 L29.9131566,3.24542333 L29.9510212,3.24542333 L29.988886,3.20214958 L30.0646151,3.20214958 L30.1457536,3.24542333 L30.2214828,3.28328786 L30.2593474,3.32115241 L30.3404859,3.35901694 L30.3783505,3.38606304 Z" id="Fill-25" fill="#FFFFFF" fill-rule="nonzero"></path>
                <path d="M37.38866,11.1375282 L36.0633985,9.81226952 L35.8686661,10.0070014 L35.8686661,10.0502752 L35.7929369,10.0502752 L35.7550723,10.0070014 L35.70098,10.0070014 L35.6631154,9.93127235 L35.587386,9.8934078 L35.5062475,9.81226952 L35.468383,9.77440499 L35.4034722,9.73654046 L35.4034722,9.69867591 L35.3656076,9.66081138 L35.4034722,9.61753763 L36.9613307,8.05968251 L36.9991955,8.05968251 L36.9991955,8.02181796 L37.1181986,8.02181796 L37.1560632,8.05968251 L37.1939277,8.10295626 L37.1939277,8.14082079 L37.2317923,8.17868532 L37.2317923,8.21654985 L37.2696569,8.25441439 L37.2696569,8.33555268 L37.3129308,8.41128175 L37.3507954,8.44914628 L37.3507954,8.53028457 L37.38866,8.56814911 L37.38866,8.72501647 L37.3507954,8.68715193 L37.1939277,8.68715193 L37.1939277,8.72501647 L36.144537,9.73654046 L37.38866,11.0239346 L37.38866,11.1375282 Z M37.38866,11.6459948 L37.3237493,11.6081303 L37.2804754,11.5648565 L37.2426108,11.526992 L37.2047462,11.4891275 L37.2047462,11.4133984 L37.2047462,11.3593062 L37.2426108,11.3214417 L37.3994786,11.2078481 L37.3994786,11.6351764 L37.38866,11.6459948 Z M38.9843833,9.8934078 L39.0222479,9.96913688 L39.0222479,10.0070014 L39.0655218,10.0502752 L39.1033864,10.0881397 L39.1033864,10.1638688 L39.141251,10.2017333 L39.141251,10.2450071 L39.1791156,10.2828716 L39.1791156,10.3964652 L39.2169801,10.4397389 L39.2169801,10.6344708 L39.1033864,10.6344708 L39.0655218,10.5911971 L38.9465187,10.5911971 L37.7402601,11.8028622 L37.7023955,11.8407267 L37.6591216,11.8407267 L37.5833924,11.8028622 L37.5455278,11.7595884 L37.4643893,11.7217239 L37.38866,11.6838594 L37.38866,11.2186665 L37.4265248,11.1753928 L37.38866,11.1375282 L37.38866,11.0239346 L37.4643893,11.0996637 L38.6327832,9.96913688 L37.4265248,8.762881 L37.38866,8.72501647 L37.38866,8.56814911 L37.38866,8.60601364 L37.4265248,8.60601364 L37.4265248,8.65469662 L38.5949186,9.82308796 L38.9086541,9.82308796 L38.9465187,9.86636172 L38.9843833,9.8934078 Z" id="Fill-27" fill="#FFFFFF" fill-rule="nonzero"></path>
                <path d="M43.6200943,18.1100658 L43.5822297,18.1100658 L43.5822297,18.0722014 L43.5443651,18.0722014 L42.9601682,18.2290686 L43.1549005,18.9647225 L43.6200943,18.8511289 L43.6579591,18.8511289 L43.6958237,18.8132643 L43.7390975,18.8511289 L43.7769621,18.8511289 L43.8148267,18.8889933 L43.8526913,18.9647225 L43.8526913,19.0837253 L43.8905559,19.2027281 L43.8905559,19.473189 L43.9338298,19.5110536 L43.8905559,19.5489181 L43.8905559,19.6300564 L43.8148267,19.6300564 C43.8148267,19.6089605 43.798058,19.592192 43.7769621,19.592192 L43.7390975,19.592192 L43.7390975,19.5489181 L43.2684944,19.667921 L43.2684944,19.7057854 L43.1549005,19.7057854 L43.1549005,19.667921 L43.1116267,19.667921 L43.1116267,19.74365 L43.073762,19.8626528 L43.073762,19.938382 L43.0358974,20.0195202 L42.9980328,20.0573848 L42.9980328,20.1331138 L42.9601682,20.1331138 L42.9601682,20.1763875 L42.9168943,20.1763875 L42.9168943,20.1331138 L42.8790297,20.0952493 L42.8790297,20.0573848 L42.8411651,19.9816557 L42.8411651,19.9005174 L42.8033005,19.8247884 L42.0622358,16.90381 L42.0243712,16.90381 L41.9865066,16.8659454 L41.9432327,16.8659454 L41.7917742,16.90381 L41.6727711,16.9416746 L41.5970419,16.9416746 L41.4780388,16.979539 L41.4023097,16.979539 L41.2833066,17.0174036 L41.1102112,17.0174036 L41.4618111,18.2669332 L41.927005,18.1479304 L41.7106359,17.3095015 L41.7106359,17.2554093 L41.7106359,17.2121354 L41.7106359,17.174271 L41.7106359,17.1364064 L41.7485004,17.1364064 L41.7485004,17.174271 L42.2894235,19.1594543 L42.2894235,19.2027281 L42.3272881,19.2027281 L42.370562,19.2405927 L42.4084266,19.2405927 L42.4841559,19.2784572 L42.5220205,19.3163217 L42.5652944,19.3541863 L42.603159,19.39746 L42.603159,19.74365 L42.5652944,19.8247884 L42.5652944,19.9005174 L42.5220205,19.9816557 L42.4841559,20.0573848 L42.4517005,20.014111 L42.4138359,19.9762464 L42.4138359,19.8951083 L42.3759713,19.8572437 L42.3759713,19.8193791 L42.1379651,18.8835842 L42.1001004,18.8457196 L42.1001004,18.8078552 L41.9865066,18.8078552 L41.6349065,18.8835842 L41.8296389,19.6246473 L41.8675035,19.6246473 L41.8675035,19.6625117 L41.9053681,19.6625117 L41.9432327,19.7003763 L41.9865066,19.7382409 L42.0622358,19.7815146 L42.1001004,19.8193791 L42.1379651,19.8572437 L42.1812389,19.8951083 L42.1812389,20.0898401 L42.1379651,20.1709784 L42.1379651,20.3657102 L42.1001004,20.4035748 L42.1001004,20.4793038 L42.0622358,20.5171684 L42.0622358,20.5983067 L42.0243712,20.5983067 L41.9865066,20.555033 L41.9865066,20.5117591 L41.9432327,20.4738947 L41.9432327,20.3981656 L41.9053681,20.3170273 L41.9053681,20.2412983 L41.553768,18.9322672 L40.7748388,19.126999 L40.7369742,19.126999 L40.7369742,19.0891346 L40.6991095,19.05127 L40.6612449,19.0134054 L40.6233803,18.9701317 L40.6233803,18.8944026 L40.569288,18.8132643 L40.569288,18.6942615 L40.569288,18.6563969 L40.5314234,18.6185325 L40.5314234,18.5752588 L40.569288,18.5373942 L40.569288,18.4995296 L41.3482173,18.2669332 L41.0777557,17.1850894 L41.0777557,17.0714958 L41.0777557,16.9903574 L41.0020266,16.9903574 L40.9208881,16.952493 L40.8451587,16.952493 L40.7640203,16.9146284 L40.7261557,16.9146284 L40.6504265,16.8767638 L40.569288,16.8659454 L40.4935588,16.8226717 L40.4665126,16.7685795 L40.3853742,16.7685795 L40.309645,16.7307149 L40.2717802,16.6928505 L40.1906418,16.6117121 L40.1527772,16.5738475 L40.1149126,16.4981185 L40.0283649,16.3953433 L40.0283649,16.3574789 L39.9850911,16.3196143 L39.9472265,16.3196143 L39.9472265,16.2276575 L39.9201803,16.2276575 L39.9959095,16.2276575 L40.0283649,16.2276575 L40.0662295,16.2709314 L40.1040941,16.3087958 L40.1798233,16.3466604 L40.2230972,16.3845249 L40.2988264,16.3845249 L40.3366911,16.4223895 L40.4178295,16.4656632 L40.569288,16.4656632 L40.6071526,16.5035278 L40.9208881,16.5035278 L40.9966173,16.4656632 L41.1102112,16.4656632 L41.3049435,16.3845249 C41.4120462,16.3731656 41.5175262,16.3477422 41.6186788,16.3087958 L41.7322727,16.2709314 L41.8675035,16.2276575 L41.9432327,16.2276575 L41.9865066,16.1897931 L42.1001004,16.1897931 L42.1379651,16.2276575 L42.1379651,16.3087958 L42.1379651,16.3845249 L42.1812389,16.4223895 L42.1812389,16.6171214 L42.1379651,16.6603952 L42.1379651,16.9308561 L42.7329805,19.2027281 L42.7762544,19.2027281 L42.814119,19.2405927 L42.8519836,19.2784572 L42.8898482,19.2784572 C42.9277127,19.3163217 42.9709866,19.3541863 43.0088512,19.3541863 C43.0467158,19.3541863 42.9709866,19.2784572 42.9709866,19.2027281 L42.9709866,19.1215899 L42.9709866,19.0458607 L43.0088512,19.0458607 L43.0088512,19.0079963 L43.0845806,19.0079963 L42.5436574,16.8443085 L42.5057928,16.8010348 L42.4679282,16.8010348 L42.4138359,16.7685795 L42.3759713,16.7685795 L42.3326974,16.7307149 L42.2948328,16.6928505 L42.2948328,16.4169802 L42.2569682,16.3412511 L42.2948328,16.2601128 L42.2948328,16.1843838 L42.3326974,16.1465193 L42.3759713,16.1465193 L42.3759713,16.1843838 L42.489565,16.1843838 L42.8790297,16.065381 L42.9980328,16.065381 L43.0358974,16.1086547 L43.0358974,16.1465193 L43.073762,16.1843838 L43.073762,16.3033867 L43.1116267,16.3791157 L43.1116267,16.5359831 L43.1549005,16.6117121 L43.1549005,16.6495767 L43.1116267,16.6928505 L43.1116267,16.7307149 L42.9980328,16.7307149 L42.9980328,16.6928505 L42.9601682,16.7307149 L42.6085681,16.8064441 L42.8033005,17.5853716 L43.4253621,17.4285042 L43.5443651,17.4285042 L43.5443651,17.471778 L43.5822297,17.471778 L43.5822297,17.547507 L43.6200943,17.5853716 L43.6200943,17.6665099 L43.6579591,17.7422389 L43.6579591,17.8504233 L43.6958237,17.9261525 L43.6958237,18.1208843 L43.6200943,18.1208843 L43.6200943,18.1100658 Z" id="Fill-29" fill="#FFFFFF" fill-rule="nonzero"></path>
                <path d="M6.73990206,34.8573331 L6.73990206,35.2467968 L6.46403127,35.4409878 L6.6587636,35.6741252 L6.58303436,35.7114488 L6.04211124,35.0142004 L6.11784047,34.9763358 L6.27470818,35.2083914 L6.74531129,34.8573331 L6.73990206,34.8573331 Z M6.73990206,32.9478786 L6.6966282,32.9478786 C6.62089897,32.9094732 6.50189588,32.9478786 6.35043742,32.9857432 L6.30716356,32.9478786 L6.73990206,32.7152822 L6.73990206,32.9478786 Z M5.87983429,34.7810631 L5.13876963,33.5693979 L5.18204347,33.5369426 L6.73990206,33.5369426 L6.73990206,33.8512183 L5.3767758,33.8512183 L5.64723736,34.2401411 C5.6807746,34.3288522 5.73432598,34.4089088 5.80410506,34.4732784 C5.89011184,34.5068157 5.98260969,34.5197978 6.07456663,34.5106021 C6.18221033,34.4997836 6.28769034,34.4738194 6.38830203,34.4354139 L6.38830203,34.4732784 L5.87983429,34.7864722 L5.87983429,34.7810631 Z M8.11384679,36.6093791 L7.72438213,36.9615193 L7.52964981,36.7289228 L7.48637597,36.804111 L8.11384679,37.4640358 L8.11384679,37.3504421 L7.95697908,37.1935748 L8.11384679,37.0367074 L8.11384679,36.6093791 Z M8.11384679,35.2083914 L8.11384679,35.5978552 L7.17804979,36.3389181 L7.33491749,36.5720554 L7.29164365,36.6093791 L6.75072052,35.9061806 L6.75072052,35.8683162 L6.78858515,35.8683162 L6.98331747,36.063048 L7.64324367,35.5605315 L7.14018517,34.9330621 L6.75072052,35.2467968 L6.75072052,34.8573331 L7.57292367,34.1535936 L7.41605595,33.9209972 L7.45392058,33.8831326 L7.9948437,34.6241957 L7.95697908,34.6626011 L7.76224675,34.4300047 L7.17804979,34.8946567 L7.64324367,35.5172578 L8.07598216,35.2083914 L8.11384679,35.2083914 Z M6.73990206,33.5369426 L7.16723133,33.5369426 L6.97249901,33.1853433 C6.91407931,33.091223 6.83402269,33.0117074 6.73990206,32.9527469 L6.73990206,32.7206915 L7.43769288,33.8025353 L7.39982827,33.8398589 L6.73990206,33.8398589 L6.73990206,33.5369426 Z M8.11384679,35.5978552 L8.50331143,35.2846614 L8.6547699,35.5172578 L8.73590838,35.4788522 L8.19498525,34.7810631 L8.11925602,34.8194685 L8.31398834,35.0515241 L8.11925602,35.2083914 L8.11384679,35.5978552 Z M8.11384679,37.4640358 L8.11384679,37.3504421 L8.18957602,37.4640358 C8.34644372,37.6209031 8.46003758,37.7025823 8.57904066,37.7025823 C8.73915391,37.6863547 8.88953053,37.6176575 9.00636993,37.5073095 L9.04423455,37.5835795 L8.57904066,37.9730432 L8.11384679,37.4640358 Z M9.3471515,38.6161994 L9.3471515,38.7730668 L9.27142225,38.7730668 C9.15512378,38.7779351 9.04152994,38.7352022 8.95768684,38.654064 C8.88249854,38.5794168 8.82840622,38.4863782 8.80081915,38.3836031 C8.77539576,38.3046284 8.78945975,38.2186218 8.83868377,38.1515475 C8.91008561,38.1007009 9.00528809,38.1007009 9.07668993,38.1515475 C9.11455456,38.1515475 9.11455456,38.1888711 9.11455456,38.2267357 C9.11942286,38.2700094 9.10589978,38.3138241 9.07668993,38.3457385 C9.05397116,38.3662936 9.02584316,38.3798165 8.99555147,38.3836031 C8.97445547,38.3836031 8.95768684,38.4009125 8.95768684,38.4220085 C8.91982223,38.4220085 8.91982223,38.4593321 8.95768684,38.5026058 C8.99555147,38.5458796 8.99555147,38.5788758 9.03341609,38.6161994 C9.07993548,38.6464911 9.13510962,38.6594732 9.19028379,38.654064 C9.24491702,38.6556868 9.29900934,38.6432456 9.3471515,38.6161994 L9.3471515,38.6161994 Z M9.3471515,36.1230904 L9.3471515,36.2415522 L9.15241916,36.0468204 L8.61149606,36.5877422 L8.73049914,36.7013358 L8.84409299,36.8208796 L8.96309607,36.8208796 C9.05397116,36.8154704 9.13835517,36.7721967 9.19569302,36.7013358 L9.23355764,36.7446096 L8.6547699,37.2698448 L8.61690529,37.1935748 C8.70778037,37.150842 8.76782284,37.0615899 8.77377299,36.9615193 C8.76998653,36.8701035 8.72617176,36.7851788 8.6547699,36.7289228 L8.54117604,36.6093791 L8.11384679,37.0367074 L8.11384679,36.6093791 L8.96850531,35.792587 L8.77377299,35.5978552 L8.81163761,35.5605315 L9.35256072,36.1014535 L9.3471515,36.1230904 Z M9.3471515,36.2415522 L9.3471515,36.1230904 L9.85561923,36.7072859 L9.54188382,37.0583443 L9.46615457,37.0210206 C9.64033183,36.8847084 9.67062352,36.6326388 9.53485182,36.4590028 C9.5040192,36.4195154 9.46615457,36.3859784 9.42288073,36.3605551 L9.3471515,36.2415522 Z M10.504727,39.0218909 L10.504727,39.5628127 L9.99625923,39.1354846 L10.0341239,39.0981609 L10.27213,39.2923518 L10.504727,39.0164816 L10.504727,39.0218909 Z M10.504727,37.2698448 L10.504727,37.7777705 L9.92053,38.480969 C9.82803214,38.5740075 9.72255213,38.6519004 9.60679459,38.7141063 C9.53972012,38.7633301 9.45317242,38.7768532 9.37419765,38.7514299 L9.37419765,38.5945626 C9.41206227,38.5572389 9.44992689,38.480969 9.53106536,38.4003716 L10.504727,37.2698448 Z M10.504727,37.1935748 L10.504727,37.2698448 L10.27213,37.074572 L10.3099946,37.0367074 L10.504727,37.1935748 Z M10.504727,37.7777705 L10.7373239,37.5073095 L10.9320562,37.6593085 L11.0077855,37.6209031 L10.504727,37.1935748 L10.504727,37.2698448 L10.504727,37.7777705 Z M11.3593855,39.7629538 L11.3593855,39.8446331 L11.2025178,39.9960912 L11.3593855,40.1150941 L11.3593855,40.1902822 L10.8941916,39.8824977 L10.9320562,39.8013594 L11.1267886,39.9582268 L11.3593855,39.7629538 Z M11.3593855,37.9346378 L11.3593855,38.4376952 L10.5425916,39.519539 L10.7751885,39.714271 L10.7373239,39.7526764 L10.504727,39.595809 L10.504727,39.0548872 L11.3593855,37.9730432 L11.1267886,37.7777705 L11.1646532,37.7399059 L11.3593855,37.9346378 Z M11.3593855,40.1902822 L11.3593855,40.1150941 L11.4783886,40.1529586 L11.440524,40.2335559 L11.3593855,40.1902822 Z M11.7596686,40.3687864 L11.7596686,40.4877893 L11.6839394,40.407192 L11.721804,40.3687864 L11.7596686,40.3687864 Z M11.7596686,39.4768062 L11.7596686,39.5903999 L11.6460747,39.6277235 L11.7596686,39.7094026 L11.7596686,39.7845907 L11.6082101,39.7094026 L11.3323393,39.86627 L11.3323393,39.7845907 L11.7596686,39.4768062 Z M11.7596686,38.2651411 L11.7596686,38.3457385 L11.5649363,38.1888711 L11.3323393,38.4593321 L11.3323393,37.9562747 L11.7596686,38.2651411 Z M11.7596686,38.3457385 L11.7596686,38.2435042 L11.8408071,38.3241016 L11.8029425,38.3619662 L11.7596686,38.3457385 Z M12.6197364,40.9913875 L12.6197364,41.0719849 L12.5385979,41.0346614 L12.5818717,40.9529821 L12.6197364,40.9913875 Z M12.6197364,38.8276999 L12.6197364,39.1030291 L12.2302717,40.6608843 L12.425004,40.8177516 L12.3871394,40.856157 L11.7596686,40.4661525 L11.7596686,40.3471495 L11.9544009,40.5040169 L12.073404,39.9960912 L11.7596686,39.7629538 L11.7596686,39.6877658 L12.1112686,39.9198212 L12.2681363,39.1414347 L11.7596686,39.568763 L11.7596686,39.4551694 L12.6197364,38.8276999 Z M12.6197364,39.1030291 L12.6197364,38.7892944 L12.657601,38.8276999 L12.6197364,39.1030291 Z M14.8753858,40.8934807 C14.8337347,40.9508184 14.8083113,41.0184337 14.7996565,41.0882126 C14.6876854,41.3072859 14.6741624,41.5620601 14.7617919,41.7914111 C14.7839698,41.8757949 14.8223753,41.9553105 14.8753858,42.0245484 L14.8753858,40.8934807 Z M14.8753858,40.1529586 L14.8753858,40.2335559 L14.7617919,40.1529586 L13.944998,41.7757243 L13.9017242,41.7757243 L13.6312626,39.6120367 L12.8901979,41.1098495 L13.1660687,41.2667168 L13.1227949,41.3051222 L12.6197364,41.0719849 L12.6197364,40.9913875 L12.8144687,41.0719849 L13.593398,39.5903999 L13.3175272,39.4335325 L13.360801,39.3956679 L13.9828626,39.7094026 L14.1397303,41.2288522 L14.7239273,40.1470085 L14.4480565,40.0280057 L14.4480565,39.9198212 L14.8753858,40.1529586 Z M14.8753858,40.2335559 L14.8753858,40.1529586 L15.0322535,40.2335559 L14.9943888,40.2719615 L14.8753858,40.2335559 Z M14.8753858,42.0245484 L14.8753858,40.8934807 C14.9889796,40.7593321 15.119883,40.6408701 15.2648504,40.5424225 C15.4720239,40.4288288 15.7230124,40.4288288 15.9301858,40.5424225 C16.0497298,40.59381 16.1557508,40.6738664 16.238512,40.7744779 L16.2817859,40.8177516 C16.3245188,40.8231609 16.3672517,40.8069332 16.3953798,40.7744779 L16.4332444,40.8177516 L16.2817859,41.2834854 L16.2276935,41.24508 C16.3304689,40.9843557 16.2028111,40.6884712 15.9415452,40.5856962 C15.9253176,40.5792051 15.9090899,40.5737958 15.8923212,40.5689275 C15.7906276,40.5343085 15.6802794,40.5343085 15.5785859,40.5689275 C15.4595828,40.6073331 15.4217182,40.6879304 15.3459889,40.7642004 C15.2805372,40.8880715 15.2280676,41.0184337 15.1891212,41.1536642 C15.0906732,41.3527235 15.0127802,41.5604374 14.9565242,41.7757243 C14.9478695,41.8693038 14.9608516,41.9639652 14.9943888,42.0515946 C15.0387445,42.1338147 15.1069009,42.2014299 15.1891212,42.2457854 C15.2626867,42.277159 15.3422024,42.2896001 15.4217182,42.28365 C15.5028565,42.28365 15.5407213,42.2457854 15.5785859,42.1651881 C15.6326782,42.0959501 15.6732474,42.0164347 15.6975889,41.9320509 L15.7354535,41.8184572 L15.4595828,41.6507715 L15.5028565,41.6129069 L16.3575151,41.965047 L16.3196505,42.0029116 L16.0870536,41.9212323 C16.0210609,42.1019004 15.8782573,42.2447037 15.6975889,42.3106962 C15.527739,42.3404468 15.3530209,42.3269238 15.1891212,42.2733726 C15.0679544,42.2041346 14.9613925,42.1121778 14.8753858,42.0029116 L14.8753858,42.0245484 Z M19.5110969,43.4038994 L19.5110969,43.4038994 L19.4732323,43.4790875 L19.5110969,43.4790875 L19.5110969,43.4038994 Z M19.5110969,41.6507715 L19.5110969,41.8460442 L19.4732323,42.1165052 L19.3975031,42.1165052 C19.4288766,41.999666 19.4137307,41.8747131 19.3542292,41.7697742 C19.2595677,41.6734901 19.1394827,41.6058748 19.0080384,41.5755832 L18.6185738,41.4939041 L18.4617061,42.235508 L18.6185738,42.2733726 C18.6488655,42.3020414 18.6905165,42.3161053 18.7321675,42.3106962 C18.8690212,42.2966322 18.9712556,42.1781703 18.9647645,42.0402352 L19.045903,42.0402352 L18.8511708,42.7812983 L18.813306,42.7812983 C18.8262883,42.6747367 18.8111423,42.5670931 18.7700323,42.4675636 C18.7175627,42.4123895 18.6499473,42.3723612 18.5752999,42.3539699 L18.4238415,42.3106962 L18.2291091,43.1334384 L18.5752999,43.2086265 C18.7300038,43.247573 18.891199,43.247573 19.045903,43.2086265 C19.1503012,43.0966557 19.2292759,42.9641299 19.2785,42.8197037 L19.3542292,42.8575683 L19.2027707,43.441223 L17.5800014,43.0517591 L17.6232753,42.976571 L17.8937367,43.0517591 L18.2832014,41.4289933 L18.0127398,41.348396 L18.0506045,41.2721261 L19.48946,41.6615899 L19.5110969,41.6507715 Z M24.498408,41.9163641 L24.498408,42.4242898 L24.4605434,42.4242898 C24.4270062,42.165729 24.2128006,41.9672107 23.9520756,41.9536877 C23.8168448,41.9455738 23.6908099,42.0240075 23.6383403,42.1484195 C23.5604474,42.3739841 23.534483,42.6146942 23.5626111,42.851618 C23.5626111,43.1653527 23.6004757,43.3606256 23.6004757,43.4358137 C23.6459133,43.6153999 23.8049446,43.7435983 23.9899404,43.7495484 C24.1100252,43.7376482 24.2214555,43.6813922 24.3036757,43.5926811 C24.4059103,43.4850376 24.4735255,43.3498072 24.498408,43.2037583 L24.5741373,43.2037583 L24.5741373,43.7446801 L24.5362727,43.7446801 C24.5000309,43.690047 24.4600026,43.6370367 24.4172697,43.5878127 C24.3117895,43.7143885 24.1543809,43.7857902 23.9899404,43.7825447 C23.7827668,43.7944449 23.5820843,43.7084384 23.4490172,43.5494073 C23.2975587,43.357921 23.203979,43.1269473 23.1785556,42.8846143 C23.1720645,42.6341674 23.2521212,42.3896707 23.4057433,42.1916933 C23.5285329,42.0256304 23.710824,41.9131185 23.9142111,41.8779586 C24.068915,41.8876952 24.2176689,41.9423283 24.3415403,42.0348259 C24.3794049,41.9969615 24.4172697,41.9536877 24.4172697,41.9163641 L24.498408,41.9163641 Z M21.9668878,41.9969615 L21.9290232,42.7764299 L22.0804818,42.8142944 C22.1616203,42.8142944 22.1994848,42.8142944 22.2373494,42.7764299 C22.275214,42.7380244 22.3184879,42.7326152 22.3563525,42.6947507 C22.3942171,42.657427 22.3942171,42.581157 22.3942171,42.4621543 L22.4699463,42.4621543 L22.4699463,43.2416227 L22.3942171,43.2416227 C22.3963808,43.1323565 22.3704166,43.0241721 22.3184879,42.927888 C22.2508725,42.8737958 22.1664884,42.8467498 22.0804818,42.851618 L21.9290232,42.851618 L21.8857494,43.7062747 L22.275214,43.7062747 C22.4282953,43.7203386 22.5813765,43.6797695 22.7079526,43.5926811 C22.802614,43.4850376 22.8561655,43.3471026 22.859411,43.2037583 L22.9405494,43.2037583 L22.9026849,43.7879538 L21.2799156,43.7495484 L21.2799156,43.6689511 L21.5936509,43.6689511 L21.6369248,41.9866838 L21.3664632,41.9866838 L21.3664632,41.9050047 L22.9243217,41.9428693 L22.9243217,42.4518768 L22.8431832,42.4518768 C22.8431832,42.2950094 22.8053186,42.1814158 22.7295895,42.1381421 C22.6316823,42.055381 22.5056474,42.0148119 22.3779894,42.0245484 L21.9885247,41.9866838 L21.9668878,41.9969615 Z M19.5110969,41.8779586 L19.5489615,41.6832268 L19.5110969,41.6832268 L19.5110969,41.8779586 Z M19.5110969,43.5007243 L19.5110969,43.4255362 L19.7869676,43.4628599 L20.0141553,41.7914111 L19.7382846,41.7481374 L19.7382846,41.6507715 L20.636217,41.8076388 L20.636217,41.8460442 L20.3224815,41.8076388 L20.0898847,43.4790875 L20.5172139,43.5607667 L20.6740816,43.5607667 C20.7362877,43.5613075 20.7952484,43.5304751 20.8309493,43.4790875 C20.8780096,43.434732 20.9180379,43.3844262 20.9499523,43.3276294 C21.0121586,43.2659642 21.0613826,43.1923989 21.0960016,43.1118015 L21.1771401,43.1118015 L21.0202724,43.6959972 L19.538143,43.5007243 L19.5110969,43.5007243 Z M26.2347712,42.3323331 L26.1319959,41.6507715 L24.6120019,41.8833678 L24.6552758,42.505969 L24.6931404,42.505969 C24.7120726,42.3469379 24.7499374,42.1906115 24.8067342,42.0402352 C24.8738088,41.9531468 24.9733385,41.8968909 25.0826051,41.8833678 L25.1961989,41.8460442 L25.4233866,43.5439981 L25.1096512,43.6197272 L25.1096512,43.6575917 L26.0833128,43.5439981 L26.0833128,43.4628599 L25.7695774,43.5007243 L25.5369805,41.8298165 L25.6559836,41.8298165 C25.764709,41.7946567 25.8842531,41.8238664 25.9643098,41.9050047 C26.0687078,42.0180574 26.1498463,42.1500423 26.2023159,42.2950094 L26.2347712,42.3323331 Z M27.2462976,41.515541 L27.2462976,41.59127 L27.1705682,41.59127 L26.8568329,41.6724083 L27.046156,42.3756068 L27.2408883,42.3323331 L27.2408883,42.3756068 L27.2030237,42.3756068 L27.046156,42.4140122 L27.2408883,43.1550753 L27.2408883,43.3492663 L26.6999651,43.5007243 L26.6621005,43.4255362 L26.9325621,43.3492663 L26.5430974,41.7265005 L26.2726358,41.8076388 L26.2347712,41.7265005 L27.2084328,41.4939041 L27.2462976,41.515541 Z M27.2462976,43.3871307 L27.2462976,43.1923989 L27.2841622,43.3059925 L27.5600329,43.2302633 L27.5600329,43.2735372 L27.2462976,43.3871307 Z M28.3768268,43.0355315 L28.3389622,43.0355315 C28.2956884,43.073396 28.2578238,43.0355315 28.2199592,43.0355315 C28.1664077,42.9706209 28.1393615,42.8878599 28.1442298,42.8029351 C28.0960878,42.6471495 27.9992625,42.5108373 27.8683591,42.4140122 C27.7450286,42.3620837 27.6125025,42.3339558 27.4788944,42.3323331 C27.6341394,42.2858137 27.7704519,42.1911525 27.8683591,42.0618721 C27.9375972,41.9731609 27.9668071,41.8595673 27.9494976,41.7481374 C27.9175831,41.6697037 27.8629498,41.6020884 27.7926299,41.5539464 C27.7212279,41.5122954 27.6422531,41.4863311 27.5600329,41.4776764 C27.4540119,41.4717263 27.347991,41.4847084 27.2462976,41.515541 L27.2462976,41.59127 C27.2841622,41.59127 27.3220268,41.5539464 27.3653006,41.5539464 C27.4085744,41.5539464 27.4410298,41.59127 27.4788944,41.6345437 C27.5281184,41.6935042 27.5681467,41.7589558 27.5978975,41.8298165 C27.636844,41.9288053 27.636844,42.0386125 27.5978975,42.1381421 C27.5978975,42.1754657 27.5600329,42.2571448 27.516759,42.2571448 C27.4458982,42.2998778 27.3663824,42.325842 27.2841622,42.3323331 L27.2462976,42.3707385 L27.2462976,42.4140122 C27.3636778,42.3804751 27.4897129,42.3939981 27.5978975,42.4518768 C27.6649719,42.5108373 27.7055412,42.5946801 27.7114914,42.6844732 L27.7926299,42.8786642 C27.79858,42.9684572 27.8391492,43.0517591 27.9062237,43.1118015 C27.9873622,43.1923989 28.1009561,43.1923989 28.2578238,43.1491252 C28.3010977,43.1545343 28.3443714,43.1404704 28.3768268,43.1118015 L28.3768268,43.0355315 Z M28.3768268,41.4403527 L28.3768268,42.2950094 L28.3389622,42.2571448 C28.2578238,42.0164347 28.2578238,41.7562511 28.3389622,41.515541 C28.3768268,41.4776764 28.3768268,41.4776764 28.3768268,41.4403527 L28.3768268,41.4403527 Z M28.3768268,43.1118015 L28.3768268,43.0355315 C28.4146914,43.0355315 28.4146914,42.9982079 28.452556,42.9982079 L28.452556,43.073396 C28.4330828,43.0782643 28.4125277,43.0782643 28.3930546,43.073396 L28.3768268,43.1118015 Z M29.1178914,41.0070743 L29.1178914,41.0882126 C29.0302619,41.050348 28.9296502,41.050348 28.8420207,41.0882126 C28.7284268,41.126618 28.6472884,41.1639416 28.6094237,41.24508 C28.5445129,41.3191863 28.516385,41.4187159 28.5336945,41.515541 C28.56615,41.7151411 28.6169967,41.9104139 28.685153,42.1002775 C28.7662915,42.2950094 28.8420207,42.4140122 28.8798853,42.5276058 C28.9150454,42.6401175 29.0048386,42.727206 29.1178914,42.7596614 L29.1178914,42.8786642 C29.036753,42.8413405 28.9231592,42.8029351 28.8041561,42.7596614 C28.6132103,42.657968 28.4628337,42.4935278 28.3768268,42.2950094 L28.3768268,41.4019473 C28.4547197,41.2061336 28.6088829,41.0498072 28.8041561,40.9697507 C28.9231592,40.9697507 29.036753,40.9313453 29.1178914,40.9697507 L29.1178914,41.0070743 Z M29.8535469,41.4776764 L29.8535469,42.4518768 C29.7772768,42.6255127 29.6382595,42.7645296 29.4640822,42.8413405 C29.3515702,42.8721731 29.2347308,42.8851552 29.1178914,42.8786642 L29.1178914,42.7326152 C29.2163396,42.7764299 29.3277697,42.7764299 29.4262176,42.7326152 C29.5127654,42.6974553 29.5917402,42.6460678 29.6588146,42.581157 C29.7280528,42.4924459 29.7572626,42.3788522 29.7399531,42.2674225 C29.7064159,42.055381 29.6463733,41.8487489 29.5614484,41.6507715 C29.5203382,41.4673989 29.4413634,41.293763 29.3288516,41.1423048 C29.2893641,41.0719849 29.2147167,41.0287112 29.1341192,41.0287112 L29.1341192,40.9481138 C29.2531222,40.9567685 29.3699616,40.9843557 29.48031,41.0287112 C29.642046,41.1314863 29.775654,41.2726669 29.8697746,41.4403527 L29.8535469,41.4776764 Z M29.8535469,40.7366133 L29.8535469,40.8128833 L29.7778177,40.856157 L29.7507716,40.7366133 L29.8643653,40.6992898 L29.8535469,40.7366133 Z M29.8535469,42.4518768 C29.8968208,42.4518768 29.8968208,42.4140122 29.9346854,42.3707385 C30.0109555,42.13111 30.0109555,41.8741721 29.9346854,41.6345437 C29.9033118,41.5847789 29.8757247,41.5328505 29.8535469,41.4776764 L29.8535469,42.4518768 Z M31.8008701,41.370033 L31.8008701,41.6507715 L30.091553,40.6392474 L30.8326178,42.1916933 L31.1463531,42.0732315 L31.1463531,42.1105551 L30.5621562,42.3869662 L30.5242916,42.3436925 L30.7947532,42.2300988 L30.091553,40.7095673 L29.8968208,40.7858373 L29.8968208,40.7095673 L30.4052885,40.4775117 L31.7305502,41.2558984 L31.2220825,40.1740546 L30.9516209,40.2935983 L30.9137563,40.2551928 L31.4979532,39.9798636 L31.5358178,40.0177281 L31.2599471,40.136731 L31.844144,41.3803105 L31.8008701,41.370033 Z M31.8008701,39.7743132 L31.8008701,39.8549106 L31.6494117,39.9311806 L31.6061379,39.8927752 L31.8008701,39.7743132 Z M31.8008701,41.6832268 L31.8008701,41.370033 L31.9956025,41.7594967 L31.9577379,41.8027705 L31.8008701,41.6832268 Z M33.0504026,41.1423048 L32.9963103,41.1639416 L32.2173809,39.6493604 L32.4932517,39.492493 L32.4553871,39.4551694 L31.8279163,39.7629538 L31.8279163,39.8446331 L31.9469193,39.8013594 L32.7258487,41.2834854 L32.4553871,41.4403527 L32.4932517,41.4776764 L33.0774488,41.2072154 L33.0774488,41.1098495 L33.0504026,41.1423048 Z M33.0504026,38.9786172 L33.0504026,39.0981609 C33.0195699,39.1576622 33.0060468,39.2252775 33.0125379,39.2923518 C33.0076697,39.3480668 33.0206518,39.4026999 33.0504026,39.4492191 L33.0504026,40.2286877 C33.0504026,40.184873 33.0125379,40.184873 33.0125379,40.1470085 C32.8762253,39.9403763 32.8080689,39.6964205 32.8178056,39.4492191 C32.8459337,39.2728786 32.9270722,39.1084384 33.0504026,38.9786172 L33.0504026,38.9786172 Z M33.0504026,39.0981609 L33.0504026,38.9786172 C33.0882672,38.9786172 33.0882672,38.9412936 33.1261318,38.9412936 C33.2619036,38.8423048 33.4306716,38.8001128 33.596735,38.8217498 C33.596735,38.7844262 33.5534611,38.7081562 33.5534611,38.6708326 L33.6345995,38.6275588 L33.9050611,39.0981609 L33.8671964,39.1354846 C33.6345995,38.902888 33.4020025,38.8217498 33.1639964,38.9786172 L33.0504026,39.0981609 Z M33.0504026,40.2286877 L33.0504026,39.4551694 C33.1120678,39.6244779 33.2034839,39.782427 33.3208641,39.9198212 C33.419853,40.101571 33.5377743,40.2719615 33.6724641,40.4288288 C33.7319658,40.4959031 33.8158087,40.5364722 33.9050611,40.5424225 C33.9883633,40.5413405 34.0695018,40.5148353 34.137658,40.4661525 C34.236106,40.4034054 34.3058851,40.3044168 34.3323904,40.1902822 C34.3799915,40.0361195 34.3664684,39.8695154 34.2945257,39.7256304 L34.3756641,39.7256304 L34.6461257,40.1902822 L34.6082612,40.2335559 C34.5660692,40.1902822 34.5108949,40.1616133 34.4513935,40.1529586 C34.3945965,40.302794 34.3015577,40.4364017 34.1809319,40.5424225 C34.0062138,40.6565569 33.7849762,40.6706209 33.596735,40.5797459 C33.3771201,40.5424225 33.1823878,40.4174694 33.0558118,40.2335559 L33.0504026,40.2286877 Z M33.0504026,41.2018062 L33.0504026,41.1098495 L33.2451349,40.9962559 L33.2829995,41.0719849 L33.0504026,41.1915288 L33.0504026,41.2018062 Z M35.7550182,37.0312983 L35.7550182,37.1881656 L35.6360151,37.1881656 C35.5905775,37.2363075 35.5375671,37.2768768 35.4791474,37.3071684 L35.3222796,37.4586265 L35.7550182,37.9676341 L35.7550182,38.4755597 L35.0518181,37.7025823 L34.8570857,37.8967732 L34.7813565,37.8161759 L35.517012,37.1935748 C35.5981505,37.1562511 35.6738797,37.074572 35.7550182,37.0367074 L35.7550182,37.0312983 Z M36.5339475,38.654064 L36.4149444,38.7730668 L35.9064767,38.1888711 L36.1012089,38.0320037 C36.2959412,37.8378127 36.4149444,37.6809454 36.4149444,37.5673518 C36.4506453,37.3066274 36.2688952,37.0664581 36.0081701,37.0302164 C35.9886969,37.0280527 35.9692237,37.0264299 35.9497504,37.0264299 C35.9064767,37.0264299 35.8307473,37.0637536 35.7550182,37.0637536 L35.7550182,37.2206209 L35.8307473,37.2206209 C35.8989037,37.2693038 35.9638145,37.3217732 36.0254798,37.3774883 C36.1136503,37.441317 36.170988,37.5397648 36.1823474,37.6479491 C36.2115573,37.7274647 36.1974932,37.8156349 36.1444828,37.8810865 L35.9876152,38.0379538 L35.8686121,38.1564158 L35.7550182,37.9995484 L35.7550182,38.5085559 L36.1823474,38.9732079 L35.9497504,39.1684807 L35.9876152,39.2436689 L36.5285382,38.7790169 L36.5339475,38.654064 Z M36.5339475,36.2036877 L36.5339475,36.3172812 C36.5301609,36.3491957 36.5144742,36.3773236 36.4906736,36.3984195 C36.4841826,36.4784759 36.4993284,36.5585325 36.5339475,36.6310159 L36.5339475,37.1719379 C36.4576774,37.039953 36.4046668,36.8949859 36.3770797,36.7446096 C36.3559838,36.5509595 36.4122398,36.3562277 36.5339475,36.2036877 L36.5339475,36.2036877 Z M36.5339475,38.7730668 L36.5339475,38.654064 L36.6475413,38.5788758 L36.6854059,38.6161994 L36.5339475,38.7730668 Z M37.740206,37.5289464 L37.740206,37.6046754 C37.6174165,37.656604 37.4816447,37.6695861 37.3507413,37.64254 C37.1197672,37.6582268 36.8931204,37.573302 36.7286798,37.4104846 C36.6513277,37.3439511 36.5858761,37.2655174 36.5339475,37.177888 L36.5339475,36.6369662 C36.5339475,36.6742898 36.5718121,36.6742898 36.5718121,36.7126952 C36.5718121,36.7505597 36.7665444,36.9501599 36.9612768,37.1448917 C37.1181444,37.2584854 37.2317382,37.3774883 37.3128767,37.4153527 C37.4010472,37.4862136 37.5086909,37.5278646 37.6212029,37.5343557 L37.740206,37.5289464 Z M37.740206,36.0468204 L37.740206,36.5877422 C37.6882773,36.5006538 37.6222848,36.4216791 37.5454737,36.3551458 C37.4113248,36.2399295 37.268521,36.1349906 37.1181444,36.0414111 C37.0299739,36.0105785 36.9358533,35.9975964 36.8422737,36.0035465 C36.7611352,36.0322154 36.6924379,36.0873895 36.6475413,36.1604139 C36.5718121,36.1982784 36.5718121,36.2740075 36.5339475,36.3118721 L36.5339475,36.1982784 C36.5382749,36.1685278 36.551798,36.1403999 36.5718121,36.1171401 C36.7384164,35.9575683 36.9634405,35.8737253 37.1938736,35.8845437 C37.3831967,35.8975258 37.5681925,35.9505362 37.7347968,36.0414111 L37.740206,36.0468204 Z M37.740206,34.8789699 L37.740206,34.9979727 L37.740206,35.3868956 L37.5454737,35.2300283 L37.3507413,35.4626247 L37.3236951,35.4036642 L37.7510244,34.8627422 L37.740206,34.8789699 Z M37.740206,37.5835795 L37.740206,37.5073095 C37.8116079,37.4640358 37.8770595,37.4115663 37.9349384,37.3504421 C37.9879488,37.2812042 38.0263543,37.2022295 38.0485322,37.1183867 C38.091806,37.0367074 38.0485322,36.9231138 37.972803,36.804111 C37.915465,36.7089088 37.8359494,36.6288522 37.740206,36.5720554 L37.740206,36.0311336 L37.8537999,36.1501364 C38.036091,36.312413 38.148603,36.5390593 38.1675352,36.7824742 C38.2124318,37.0096614 38.1388663,37.2438805 37.972803,37.4050753 C37.9035648,37.4748542 37.8256718,37.5343557 37.740206,37.5835795 L37.740206,37.5835795 Z M38.5569999,35.1705268 L38.5569999,35.2846614 C38.5191353,35.2846614 38.5191353,35.3219849 38.4812707,35.3219849 L38.4001322,35.4788522 L38.5569999,35.5978552 L38.5569999,36.0251835 L37.740206,35.3652588 L37.740206,34.9763358 L38.324403,35.4409878 L38.4812707,35.2467968 C38.5191353,35.2083914 38.5191353,35.1705268 38.5569999,35.1705268 L38.5569999,35.1705268 Z M38.5569999,34.310461 L38.5569999,34.7810631 C38.5148079,34.7302164 38.4612566,34.6891063 38.4001322,34.6626011 C38.3492854,34.6030996 38.2811292,34.5614488 38.2053998,34.5435983 C38.1296706,34.5435983 38.091806,34.5435983 38.0485322,34.5868721 C38.0020128,34.6301458 37.9636073,34.6815333 37.9349384,34.7377893 L37.740206,34.9763358 L37.740206,34.8573331 L37.9349384,34.6241957 C37.9901125,34.5273706 38.07071,34.4473142 38.1675352,34.3921401 C38.2308233,34.3342615 38.3146664,34.3045109 38.4001322,34.310461 L38.5569999,34.310461 Z M38.5569999,33.8074036 L38.5569999,34.04 L38.4812707,33.9594026 L38.5569999,33.8074036 Z M39.1790614,35.8796754 L39.1790614,35.9981374 L38.7517322,36.5390593 L38.676003,36.4957854 L38.8707354,36.263189 L38.5569999,36.0311336 L38.5569999,35.6038053 L39.0654676,36.0311336 L39.1790614,35.8796754 Z M39.1790614,34.9433396 L38.9843292,34.9433396 C38.8545077,34.9817451 38.7338817,35.0482784 38.6327291,35.1380715 C38.7273906,35.0006773 38.781483,34.8400236 38.7895969,34.6728786 C38.795547,34.5598259 38.7338817,34.4538053 38.6327291,34.4024177 L38.5569999,34.3218204 L38.5569999,34.7924225 C38.5948645,34.8297459 38.5948645,34.8297459 38.5948645,34.8676105 C38.6256972,34.9281938 38.6386793,34.995268 38.6327291,35.0628833 C38.5948645,35.1002069 38.5948645,35.1380715 38.5569999,35.1813453 L38.5569999,35.2949389 C38.6018965,35.2056868 38.690067,35.1467263 38.7895969,35.1380715 C38.8750628,35.1337441 38.9583649,35.1629538 39.0221938,35.2197507 L39.1790614,35.3333443 L39.1790614,34.9433396 Z M39.1790614,32.8445626 L39.1790614,32.9960206 C39.1411968,33.0398353 39.1033322,33.0398353 39.1033322,33.0776999 L39.0221938,33.1912936 L39.1790614,33.3102963 L39.1790614,33.6992191 L38.8274615,33.5050283 L38.7517322,33.624031 C38.7025082,33.7046284 38.6889851,33.8030762 38.7138676,33.894492 C38.7706645,34.0443274 38.8637034,34.1779351 38.9843292,34.2834148 L38.9464646,34.3218204 L38.5569999,34.0513594 L38.5569999,33.8074036 L39.1790614,32.8342851 L39.1790614,32.8445626 Z M39.1790614,32.9960206 L39.1790614,32.8342851 L39.2980647,32.6390122 L39.8389877,32.9478786 L39.7957138,32.9857432 C39.6529102,32.9105551 39.4895513,32.8840499 39.33052,32.9094732 C39.2699366,32.9154233 39.2147625,32.9473378 39.1790614,32.9960206 L39.1790614,32.9960206 Z M39.1790614,33.6992191 L39.1790614,33.3102963 L40.4664585,34.0778646 L40.6233262,33.8074036 L40.6611908,33.845809 L40.1527232,34.7004657 L40.1148584,34.6626011 L40.2717263,34.3483254 L39.18988,33.6889416 L39.1790614,33.6992191 Z M39.1790614,35.3219849 L39.1790614,34.9330621 C39.2601999,34.9763358 39.3359292,35.0142004 39.4549323,35.0899295 C39.5030744,35.1515946 39.5723127,35.1937864 39.6496646,35.2083914 C39.6875292,35.2083914 39.7253939,35.1705268 39.7632585,35.127794 C39.8011231,35.0845202 39.8011231,35.0899295 39.8011231,35.0142004 L39.8822616,35.0899295 C39.844397,35.1705268 39.8011231,35.2083914 39.7632585,35.2846614 C39.6907748,35.3820273 39.57664,35.4399059 39.4549323,35.4409878 C39.3700074,35.4393651 39.2872461,35.4128599 39.2169262,35.3652588 L39.1790614,35.3219849 Z M39.1790614,35.9878599 L39.1790614,35.8683162 L39.2601999,35.792587 L39.2980647,35.8309925 L39.1790614,35.9878599 Z" id="Fill-31" fill="#FFFFFF" fill-rule="nonzero"></path>
            </g>
        </g>
    </g>
</svg>